<svg width="400" height="391" viewBox="0 0 400 391" fill="none" xmlns="http://www.w3.org/2000/svg">
<path fill-rule="evenodd" clip-rule="evenodd" d="M206.921 27.6294C237.625 29.7092 269.306 4.47116 297.529 17.2663C325.6 29.9927 339.005 64.1174 351.62 93.2297C362.803 119.039 358.343 148.641 366.203 175.754C374.726 205.157 402.064 229.059 399.876 259.694C397.703 290.11 375.675 315.529 354.703 336.761C334.797 356.914 309.029 368.835 282.799 378.221C258.318 386.98 232.784 388.705 206.921 389.641C180.386 390.602 153.111 394.123 128.466 383.808C103.318 373.283 86.3345 349.845 66.3092 330.791C43.3261 308.922 8.05714 294.404 1.22106 262.732C-5.61902 231.041 17.8742 200.958 32.0442 172.037C44.0207 147.593 66.3282 130.934 77.8809 106.268C93.1089 73.7555 80.5324 22.8399 110.469 4.59597C139.315 -12.9828 173.592 25.3719 206.921 27.6294Z" fill="#E3AF64"/>
</svg>
