<svg width="689" height="621" viewBox="0 0 689 621" fill="none" xmlns="http://www.w3.org/2000/svg">
<path fill-rule="evenodd" clip-rule="evenodd" d="M340.983 126.171C363.39 145.991 375.351 177.511 402.593 189.872C430.791 202.667 472.948 173.09 494.14 195.667C514.483 217.34 470.003 262.24 490.62 283.652C543.916 339.003 672.968 321.66 688.011 397.012C699.589 455.005 585.287 455.841 527.063 466.199C485.537 473.587 436.09 420.85 403.503 447.629C355.9 486.746 400.743 604.112 340.983 619.109C289.431 632.047 287.669 529.456 261.275 483.321C247.706 459.603 248.402 421.234 222.612 412.203C153.54 388.018 52.2016 451.347 6.56677 394.134C-27.7191 351.149 86.1744 315.705 104.213 263.764C119.531 219.656 85.7286 170.016 99.855 125.512C115.515 76.1773 136.176 -0.141271 187.936 0.000196389C254.892 0.183194 290.832 81.8101 340.983 126.171Z" fill="#0F1939"/>
</svg>
