<svg width="675" height="560" viewBox="0 0 675 560" fill="none" xmlns="http://www.w3.org/2000/svg">
<path fill-rule="evenodd" clip-rule="evenodd" d="M314.959 173.016C371.314 118.346 394.038 -6.36354 471.294 0.253362C533.279 5.56242 452.76 139.094 492.513 188.223C533.561 238.952 656.063 186.094 673.121 249.683C689.71 311.521 592.246 344.63 546.052 387.801C519.259 412.84 485.473 426.543 457.967 450.753C436.011 470.079 423.793 498.417 400.455 515.953C374.606 535.376 345.537 567.995 314.959 558.209C280.181 547.08 282.47 488.516 251.774 468.373C226.291 451.65 192.158 465.439 162.724 458.308C106.891 444.782 4.77282 466.14 0.170877 407.418C-4.85312 343.311 102.206 336.605 149.922 294.95C168.813 278.459 176.68 252.1 196.149 236.334C213.633 222.174 236.624 219.266 256.388 208.733C276.798 197.856 298.243 189.232 314.959 173.016Z" fill="#516AC8"/>
</svg>
