<svg width="724" height="577" viewBox="0 0 724 577" fill="none" xmlns="http://www.w3.org/2000/svg">
<path fill-rule="evenodd" clip-rule="evenodd" d="M255.179 576.424C200.585 572.938 236.556 469.042 193.787 435.393C145.854 397.681 56.5425 434.024 16.8693 388.931C-17.4922 349.875 9.15736 290.452 26.7456 245.531C42.764 204.62 77.9928 174.419 112.299 145.202C141.149 120.633 180.848 111.133 211.365 88.3029C246.358 62.1238 259.436 6.04164 305.201 0.89005C350.521 -4.21148 398.887 29.0411 427.36 63.9891C455.623 98.681 432.661 150.228 457.011 187.227C472.931 211.417 509.548 214.345 535.889 228.892C596.397 262.309 683.322 271.143 714.27 329.304C738.556 374.944 710.617 447.358 661.399 464.761C595.92 487.914 523.21 426.682 451.471 422.227C425.143 420.592 399.634 432.062 380.236 447.3C331.974 485.212 320.683 580.607 255.179 576.424Z" fill="#516AC8"/>
</svg>
