<svg width="747" height="347" viewBox="0 0 747 347" fill="none" xmlns="http://www.w3.org/2000/svg">
<path fill-rule="evenodd" clip-rule="evenodd" d="M401.002 2.07079C471.741 8.52203 511.994 43.3515 570.44 64.2063C629.43 85.2552 727.081 89.6478 744.661 124.695C762.434 160.128 673.89 186.014 648.747 220.323C625.049 252.66 651.611 294.08 602.696 318.415C552.449 343.414 469.658 352.677 401.002 343.576C336.352 335.006 323.747 289.285 264.717 273.613C188.13 253.28 68.6152 277.423 18.7058 242.08C-28.3769 208.737 24.8295 162.245 53.5682 124.085C81.1004 87.5274 115.418 51.065 179.515 28.555C243.11 6.22145 324.442 -4.91129 401.002 2.07079Z" fill="#E3AF64"/>
</svg>
