<svg width="476" height="634" viewBox="0 0 476 634" fill="none" xmlns="http://www.w3.org/2000/svg">
<path fill-rule="evenodd" clip-rule="evenodd" d="M223.094 96.5308C249.08 111.99 274.834 121.933 302.371 130.039C350.48 144.2 409.524 112.803 444.991 161.849C479.026 208.914 482.092 294.156 468.025 359.114C454.395 422.048 404.325 447.956 372.725 495.543C343.195 540.011 329.08 611.004 288.411 629.592C247.663 648.216 207.659 602.58 165.801 590.119C119.135 576.227 54.652 609.437 28.2469 552.143C0.67073 492.309 57.3084 415.236 52.2441 343.727C47.5226 277.059 -6.1155 227.755 0.577007 161.439C7.45608 93.2756 40.014 15.4028 86.7544 1.7686C137.212 -12.9499 175.497 68.2149 223.094 96.5308Z" fill="#516AC8"/>
</svg>
