<svg width="580" height="531" viewBox="0 0 580 531" fill="none" xmlns="http://www.w3.org/2000/svg">
<path fill-rule="evenodd" clip-rule="evenodd" d="M239.598 45.9319C292.991 41.2096 342.441 -16.5771 391.648 4.67915C439.163 25.2051 431.072 97.5759 459.411 140.888C494.936 195.179 588.27 225.86 578.323 289.974C568.332 354.378 468.674 354.348 419.636 397.277C380.017 431.961 368.453 494.742 320.238 515.908C270.413 537.782 209.337 534.831 160.37 511.098C113.788 488.52 84.5443 440.373 65.2686 392.33C49.3559 352.67 72.606 308.241 62.3369 266.759C50.247 217.923 -7.81927 181.809 0.885183 132.257C9.42398 83.6473 57.4919 46.9127 103.904 30.1289C147.612 14.3229 193.3 50.0268 239.598 45.9319Z" fill="#516AC8"/>
</svg>
