<svg width="500" height="787" viewBox="0 0 500 787" fill="none" xmlns="http://www.w3.org/2000/svg">
<path fill-rule="evenodd" clip-rule="evenodd" d="M497.25 349.837C508.862 405.862 473.225 443.574 461.803 496.907C449.908 552.451 454.278 607.922 425.023 649.506C394.031 693.56 358.102 764.519 312.835 779.925C263.371 796.76 217.806 778.702 167.89 751.7C117.999 724.711 90.2714 650.531 57.8491 592.961C27.3466 538.801 23.6024 499.694 12.0643 435.83C0.393563 371.232 -6.0916 322.767 8.43088 262.319C23.076 201.36 45.7948 142.233 85.0887 105.997C123.5 70.5747 176.521 79.4068 223.091 64.3642C276.372 47.1536 328.847 -27.0948 379.509 10.8946C433.106 51.0844 415.73 159.941 445.165 230.887C466.445 282.178 485.763 294.42 497.25 349.837Z" fill="#E3AF64"/>
</svg>
