<svg width="502" height="477" viewBox="0 0 502 477" fill="none" xmlns="http://www.w3.org/2000/svg">
<path fill-rule="evenodd" clip-rule="evenodd" d="M491.333 334.474C483.209 298.801 461.184 255.388 458.626 218.888C453.622 147.474 506.032 102.704 470.73 40.4466C441.825 -10.5295 352.212 -7.69201 299.946 18.7779C246.746 45.7203 236.434 109.374 193.251 150.52C162.893 179.447 129.13 185.566 96.8358 212.31C53.4307 248.256 -2.08577 290.701 0.386837 347.023C2.81612 402.358 57.5704 446.417 108.104 468.993C153.011 489.055 203.203 461.202 252.36 459.592C283.24 458.581 312.263 460.748 343.154 461.298C389.235 462.119 443.567 493.605 478.598 463.623C512.129 434.923 501.135 377.52 491.333 334.474Z" fill="#516AC8"/>
</svg>
