<svg width="857" height="660" viewBox="0 0 857 660" fill="none" xmlns="http://www.w3.org/2000/svg">
<path fill-rule="evenodd" clip-rule="evenodd" d="M553.835 45.3255C615.236 52.6615 686.943 62.4537 732.602 101.637C778.536 141.056 776.523 197.3 788.08 246.35C797.884 287.959 784.987 326.781 795.453 368.394C808.249 419.274 860.468 469.023 856.442 518.16C852.317 568.495 823.617 617.402 773.028 642.045C722.32 666.746 649.841 660.026 583.994 650.876C525.566 642.757 472.998 609.697 415.533 592.37C363.925 576.809 313.052 566.427 260.922 553.464C186.136 534.867 73.2722 556.228 38.9486 498.724C0.395881 434.136 134.985 396.825 127.636 330.166C121.805 277.276 18.9741 242.226 4.8035 189.003C-8.89683 137.546 14.7805 86.2324 53.5441 51.8839C92.2018 17.6293 153.883 -1.50467 217.72 0.337251C279.875 2.1306 336.827 53.4462 399.796 61.8744C454.613 69.2115 499.058 38.781 553.835 45.3255Z" fill="#516AC8"/>
</svg>
