<svg width="778" height="677" viewBox="0 0 778 677" fill="none" xmlns="http://www.w3.org/2000/svg">
<path fill-rule="evenodd" clip-rule="evenodd" d="M404.944 48.7286C466.84 54.9059 529.696 29.0733 587.952 51.2321C647.919 74.0415 694.145 121.653 726.249 170.943C759.418 221.868 787.497 282.004 773.292 335.788C759.023 389.811 703.546 427.124 650.66 457.139C606.696 482.089 535.33 461.513 497.18 492.49C449.167 531.475 471.104 615.01 416.499 647.272C365.638 677.321 275.131 692.132 226.809 652.229C165.762 601.819 219.881 508.68 174.713 447.613C146.628 409.642 60.7215 430.913 34.4129 392.108C9.27845 355.034 61.6195 314.35 56.3119 272.97C49.9868 223.658 -4.82207 179.675 0.946537 131.195C6.81607 81.8676 37.0878 30.7548 87.7016 9.17085C139.125 -12.7583 204.731 11.5052 264.222 18.9232C312.262 24.9135 356.84 43.9277 404.944 48.7286Z" fill="#0F1939"/>
</svg>
