<svg width="443" height="599" viewBox="0 0 443 599" fill="none" xmlns="http://www.w3.org/2000/svg">
<path fill-rule="evenodd" clip-rule="evenodd" d="M258.891 3.62425C313.4 -3.58151 377.745 -4.48899 415.94 44.2007C453.726 92.3684 439.816 170.856 442.681 237.913C444.776 286.956 436.083 332.235 430.321 380.827C423.025 442.356 440.317 516.413 404.489 559.996C368.532 603.736 307.438 606.159 258.891 589.365C215.171 574.24 201.465 504.944 162.428 476.257C116.306 442.364 44.3009 465.545 14.858 410.037C-14.3136 355.04 5.04595 278.697 25.3979 217.915C44.6895 160.301 83.9855 119.873 124.452 82.7338C165.313 45.2334 208.318 10.3098 258.891 3.62425Z" fill="#E3AF64"/>
</svg>
