<svg width="771" height="282" viewBox="0 0 771 282" fill="none" xmlns="http://www.w3.org/2000/svg">
<path fill-rule="evenodd" clip-rule="evenodd" d="M14.8362 105.866C20.821 84.5645 23.1913 62.6581 48.5294 44.7626C74.128 26.6831 108.769 9.1365 160.873 2.72522C212.053 -3.57246 273.274 8.0735 330.409 10.0778C381.618 11.8742 430.355 10.0763 481.746 13.9815C542.56 18.6028 608.825 19.4384 660.345 35.1497C712.209 50.9662 742.042 75.7455 760.668 99.041C778.581 121.446 767.807 143.199 764.297 165.164C760.869 186.612 770.832 210.923 740.182 227.22C709.676 243.44 646.805 244.461 598.956 253.076C553.875 261.193 515.204 272.869 464.892 276.786C409.553 281.093 349.892 285.825 292.029 276.967C233.986 268.082 195.495 245.536 148.875 228.408C100.923 210.79 37.1173 196.95 12.1779 174.15C-12.7619 151.349 8.49826 128.425 14.8362 105.866Z" fill="#E3AF64"/>
</svg>
