<svg width="350" height="85" viewBox="0 0 350 85" fill="none" xmlns="http://www.w3.org/2000/svg">
<path d="M1.7134 78.6453V24.2456H14.3119V78.6453H1.7134ZM8.06304 15.2808C5.71132 15.2808 3.76275 14.5338 2.21734 13.0396C0.739112 11.5455 0 9.74577 0 7.64041C0 5.46714 0.739112 3.66739 2.21734 2.24118C3.76275 0.747061 5.71132 0 8.06304 0C10.4148 0 12.3297 0.713104 13.808 2.13931C15.3534 3.49761 16.1261 5.22944 16.1261 7.33479C16.1261 9.57598 15.387 11.4776 13.9087 13.0396C12.4305 14.5338 10.4819 15.2808 8.06304 15.2808Z" fill="#1E1E1E"/>
<path d="M65.4177 23.6343C69.718 23.6343 73.5479 24.4833 76.9075 26.1811C80.3343 27.879 83.022 30.4937 84.9706 34.0253C86.9191 37.4889 87.8934 41.9713 87.8934 47.4724V78.6453H75.2949V49.1024C75.2949 44.2804 74.1526 40.6809 71.8681 38.3039C69.6508 35.9269 66.5264 34.7384 62.4948 34.7384C59.5384 34.7384 56.9179 35.3496 54.6334 36.5721C52.3489 37.7946 50.5683 39.6283 49.2916 42.0732C48.0822 44.4502 47.4774 47.4724 47.4774 51.1398V78.6453H34.8789V24.2456H46.8727V38.9152L44.7562 34.4328C46.6375 30.9691 49.3588 28.3205 52.92 26.4868C56.5484 24.5851 60.7143 23.6343 65.4177 23.6343Z" fill="#1E1E1E"/>
<path d="M133.303 79.3584C127.323 79.3584 122.082 78.1699 117.58 75.7929C113.146 73.3479 109.685 70.0201 107.199 65.8094C104.78 61.5987 103.571 56.8107 103.571 51.4454C103.571 46.0122 104.747 41.2243 107.098 37.0815C109.517 32.8707 112.81 29.5769 116.975 27.1999C121.209 24.8228 126.013 23.6343 131.388 23.6343C136.629 23.6343 141.299 24.7889 145.398 27.098C149.496 29.4071 152.722 32.667 155.073 36.8777C157.425 41.0884 158.601 46.0462 158.601 51.751C158.601 52.2944 158.567 52.9056 158.5 53.5847C158.5 54.2639 158.467 54.9091 158.399 55.5203H113.549V47.0649H151.747L146.809 49.7136C146.876 46.5895 146.238 43.839 144.894 41.462C143.55 39.0849 141.702 37.2173 139.35 35.859C137.066 34.5007 134.412 33.8215 131.388 33.8215C128.297 33.8215 125.576 34.5007 123.224 35.859C120.94 37.2173 119.126 39.1189 117.782 41.5638C116.505 43.9408 115.867 46.7593 115.867 50.0192V52.0567C115.867 55.3166 116.606 58.2029 118.084 60.7158C119.562 63.2286 121.645 65.1642 124.333 66.5225C127.021 67.8808 130.111 68.5599 133.605 68.5599C136.629 68.5599 139.35 68.0845 141.769 67.1337C144.188 66.1829 146.338 64.6888 148.22 62.6514L154.973 70.4955C152.554 73.3479 149.496 75.5552 145.801 77.1172C142.172 78.6113 138.007 79.3584 133.303 79.3584Z" fill="#1E1E1E"/>
<path d="M165.9 78.6453L189.585 47.4724L189.384 54.2978L166.807 24.2456H180.817L196.64 45.6387H191.299L207.223 24.2456H220.83L198.051 54.2978L198.152 47.4724L221.737 78.6453H207.526L190.896 55.9278L196.137 56.6409L179.809 78.6453H165.9Z" fill="#1E1E1E"/>
<path d="M246.194 40.2254C244.797 40.2254 243.452 40.0463 242.159 39.688C240.887 39.3086 239.875 38.8554 239.125 38.3285L240.626 35.325C241.377 35.8098 242.273 36.2103 243.316 36.5264C244.359 36.8426 245.401 37.0007 246.444 37.0007C247.674 37.0007 248.561 36.832 249.103 36.4948C249.666 36.1576 249.947 35.7044 249.947 35.1353C249.947 34.6717 249.76 34.3239 249.384 34.092C249.009 33.8391 248.519 33.6494 247.914 33.523C247.309 33.3965 246.632 33.2806 245.881 33.1752C245.151 33.0698 244.411 32.9328 243.66 32.7642C242.93 32.5745 242.263 32.311 241.658 31.9738C241.054 31.6155 240.564 31.1413 240.188 30.5511C239.813 29.9609 239.625 29.1811 239.625 28.2116C239.625 27.1366 239.927 26.2092 240.532 25.4294C241.137 24.6285 241.981 24.0172 243.066 23.5957C244.171 23.1531 245.474 22.9318 246.976 22.9318C248.102 22.9318 249.238 23.0582 250.385 23.3112C251.532 23.5641 252.481 23.9224 253.232 24.3861L251.73 27.3896C250.938 26.9048 250.135 26.5781 249.322 26.4095C248.529 26.2198 247.737 26.1249 246.944 26.1249C245.756 26.1249 244.87 26.3041 244.286 26.6624C243.723 27.0207 243.441 27.4739 243.441 28.0219C243.441 28.5277 243.629 28.9071 244.004 29.16C244.38 29.4129 244.87 29.6132 245.474 29.7607C246.079 29.9083 246.746 30.0347 247.476 30.1401C248.227 30.2244 248.967 30.3614 249.697 30.5511C250.427 30.7408 251.094 31.0043 251.699 31.3415C252.324 31.6576 252.825 32.1108 253.2 32.701C253.576 33.2911 253.763 34.0604 253.763 35.0089C253.763 36.0627 253.45 36.9796 252.825 37.7594C252.22 38.5393 251.355 39.1505 250.229 39.5931C249.103 40.0147 247.758 40.2254 246.194 40.2254Z" fill="#1E1E1E"/>
<path d="M264.825 40.2254C262.969 40.2254 261.343 39.8566 259.945 39.1189C258.569 38.3601 257.495 37.3274 256.724 36.0206C255.973 34.7138 255.598 33.2279 255.598 31.5628C255.598 29.8766 255.963 28.3907 256.692 27.105C257.443 25.7982 258.465 24.776 259.758 24.0383C261.072 23.3006 262.562 22.9318 264.231 22.9318C265.857 22.9318 267.307 23.2901 268.579 24.0067C269.851 24.7233 270.851 25.735 271.581 27.0418C272.311 28.3486 272.676 29.8872 272.676 31.6576C272.676 31.8263 272.666 32.016 272.645 32.2267C272.645 32.4375 272.634 32.6377 272.613 32.8274H258.694V30.2033H270.549L269.016 31.0253C269.037 30.0558 268.839 29.2022 268.422 28.4645C268.005 27.7268 267.432 27.1472 266.702 26.7256C265.993 26.3041 265.169 26.0933 264.231 26.0933C263.271 26.0933 262.427 26.3041 261.697 26.7256C260.988 27.1472 260.425 27.7373 260.008 28.4961C259.612 29.2338 259.414 30.1085 259.414 31.1202V31.7525C259.414 32.7642 259.643 33.66 260.102 34.4398C260.561 35.2197 261.207 35.8204 262.041 36.2419C262.875 36.6634 263.835 36.8742 264.919 36.8742C265.857 36.8742 266.702 36.7267 267.452 36.4316C268.203 36.1365 268.87 35.6728 269.454 35.0405L271.55 37.4749C270.799 38.3601 269.851 39.0451 268.704 39.5299C267.578 39.9936 266.285 40.2254 264.825 40.2254Z" fill="#1E1E1E"/>
<path d="M276.275 40.0041V23.1215H279.998V27.7689L279.56 26.4095C280.06 25.2713 280.842 24.4072 281.906 23.817C282.99 23.2268 284.335 22.9318 285.941 22.9318V26.694C285.774 26.6519 285.617 26.6308 285.471 26.6308C285.325 26.6097 285.179 26.5992 285.033 26.5992C283.553 26.5992 282.375 27.0418 281.499 27.927C280.623 28.7912 280.185 30.0874 280.185 31.8157V40.0041H276.275Z" fill="#1E1E1E"/>
<path d="M294.154 40.0041L286.991 23.1215H291.057L297.219 38.0124H295.217L301.598 23.1215H305.351L298.189 40.0041H294.154Z" fill="#1E1E1E"/>
<path d="M307.639 40.0041V23.1215H311.549V40.0041H307.639ZM309.609 20.3393C308.879 20.3393 308.275 20.1075 307.795 19.6438C307.336 19.1801 307.107 18.6215 307.107 17.9681C307.107 17.2937 307.336 16.7351 307.795 16.2925C308.275 15.8288 308.879 15.597 309.609 15.597C310.339 15.597 310.933 15.8183 311.392 16.2609C311.872 16.6824 312.112 17.2199 312.112 17.8733C312.112 18.5688 311.882 19.159 311.423 19.6438C310.965 20.1075 310.36 20.3393 309.609 20.3393Z" fill="#1E1E1E"/>
<path d="M324.187 40.2254C322.436 40.2254 320.872 39.8566 319.495 39.1189C318.14 38.3601 317.076 37.3274 316.305 36.0206C315.533 34.7138 315.148 33.2279 315.148 31.5628C315.148 29.8766 315.533 28.3907 316.305 27.105C317.076 25.7982 318.14 24.776 319.495 24.0383C320.872 23.3006 322.436 22.9318 324.187 22.9318C325.814 22.9318 327.242 23.269 328.472 23.9435C329.724 24.5969 330.672 25.5664 331.319 26.8521L328.316 28.6226C327.816 27.8216 327.2 27.2315 326.471 26.8521C325.762 26.4727 324.99 26.283 324.156 26.283C323.197 26.283 322.331 26.4938 321.56 26.9153C320.788 27.3369 320.184 27.9481 319.746 28.749C319.308 29.5289 319.089 30.4668 319.089 31.5628C319.089 32.6588 319.308 33.6073 319.746 34.4082C320.184 35.188 320.788 35.7887 321.56 36.2103C322.331 36.6318 323.197 36.8426 324.156 36.8426C324.99 36.8426 325.762 36.6529 326.471 36.2735C327.2 35.8941 327.816 35.304 328.316 34.503L331.319 36.2735C330.672 37.5381 329.724 38.5182 328.472 39.2137C327.242 39.8882 325.814 40.2254 324.187 40.2254Z" fill="#1E1E1E"/>
<path d="M342.149 40.2254C340.293 40.2254 338.667 39.8566 337.269 39.1189C335.893 38.3601 334.819 37.3274 334.048 36.0206C333.297 34.7138 332.922 33.2279 332.922 31.5628C332.922 29.8766 333.287 28.3907 334.016 27.105C334.767 25.7982 335.789 24.776 337.082 24.0383C338.396 23.3006 339.886 22.9318 341.555 22.9318C343.181 22.9318 344.63 23.2901 345.902 24.0067C347.174 24.7233 348.175 25.735 348.905 27.0418C349.635 28.3486 350 29.8872 350 31.6576C350 31.8263 349.99 32.016 349.969 32.2267C349.969 32.4375 349.958 32.6377 349.937 32.8274H336.018V30.2033H347.873L346.34 31.0253C346.361 30.0558 346.163 29.2022 345.746 28.4645C345.329 27.7268 344.756 27.1472 344.026 26.7256C343.317 26.3041 342.493 26.0933 341.555 26.0933C340.595 26.0933 339.751 26.3041 339.021 26.7256C338.312 27.1472 337.749 27.7373 337.332 28.4961C336.936 29.2338 336.738 30.1085 336.738 31.1202V31.7525C336.738 32.7642 336.967 33.66 337.426 34.4398C337.885 35.2197 338.531 35.8204 339.365 36.2419C340.199 36.6634 341.158 36.8742 342.243 36.8742C343.181 36.8742 344.026 36.7267 344.776 36.4316C345.527 36.1365 346.194 35.6728 346.778 35.0405L348.874 37.4749C348.123 38.3601 347.174 39.0451 346.028 39.5299C344.902 39.9936 343.609 40.2254 342.149 40.2254Z" fill="#1E1E1E"/>
<path d="M248.102 78.8666C246.496 78.8666 245.047 78.5083 243.754 77.7917C242.482 77.054 241.481 76.0423 240.751 74.7566C240.021 73.4709 239.656 71.9533 239.656 70.204C239.656 68.4546 240.021 66.937 240.751 65.6513C241.481 64.3656 242.482 63.3645 243.754 62.6478C245.047 61.9312 246.496 61.5729 248.102 61.5729C249.499 61.5729 250.75 61.8891 251.855 62.5214C252.96 63.1326 253.836 64.0705 254.483 65.3352C255.129 66.5998 255.452 68.2227 255.452 70.204C255.452 72.1641 255.14 73.787 254.514 75.0727C253.888 76.3374 253.023 77.2858 251.918 77.9181C250.813 78.5504 249.541 78.8666 248.102 78.8666ZM248.571 75.4837C249.509 75.4837 250.343 75.273 251.073 74.8514C251.824 74.4299 252.418 73.8187 252.856 73.0177C253.315 72.2168 253.544 71.2789 253.544 70.204C253.544 69.1079 253.315 68.17 252.856 67.3902C252.418 66.5892 251.824 65.978 251.073 65.5565C250.343 65.1349 249.509 64.9242 248.571 64.9242C247.633 64.9242 246.788 65.1349 246.037 65.5565C245.307 65.978 244.713 66.5892 244.254 67.3902C243.817 68.17 243.598 69.1079 243.598 70.204C243.598 71.2789 243.817 72.2168 244.254 73.0177C244.713 73.8187 245.307 74.4299 246.037 74.8514C246.788 75.273 247.633 75.4837 248.571 75.4837ZM253.638 78.6453V74.6617L253.795 70.1723L253.482 65.6829V55.1866H257.36V78.6453H253.638Z" fill="#1E1E1E"/>
<path d="M270.67 78.8666C268.814 78.8666 267.188 78.4977 265.791 77.76C264.414 77.0013 263.341 75.9685 262.569 74.6617C261.818 73.355 261.443 71.869 261.443 70.204C261.443 68.5178 261.808 67.0319 262.538 65.7462C263.288 64.4394 264.31 63.4172 265.603 62.6795C266.917 61.9418 268.408 61.5729 270.076 61.5729C271.702 61.5729 273.152 61.9312 274.424 62.6478C275.696 63.3645 276.697 64.3762 277.427 65.6829C278.156 66.9897 278.521 68.5283 278.521 70.2988C278.521 70.4674 278.511 70.6571 278.49 70.8679C278.49 71.0786 278.48 71.2789 278.459 71.4686H264.54V68.8445H276.394L274.862 69.6665C274.883 68.6969 274.684 67.8433 274.267 67.1056C273.85 66.3679 273.277 65.7883 272.547 65.3668C271.838 64.9452 271.014 64.7345 270.076 64.7345C269.117 64.7345 268.272 64.9452 267.542 65.3668C266.833 65.7883 266.27 66.3785 265.853 67.1372C265.457 67.8749 265.259 68.7496 265.259 69.7613V70.3936C265.259 71.4053 265.488 72.3011 265.947 73.081C266.406 73.8608 267.052 74.4615 267.886 74.883C268.721 75.3046 269.68 75.5154 270.764 75.5154C271.703 75.5154 272.547 75.3678 273.298 75.0727C274.048 74.7777 274.716 74.314 275.3 73.6817L277.395 76.1161C276.645 77.0013 275.696 77.6863 274.549 78.1711C273.423 78.6348 272.13 78.8666 270.67 78.8666Z" fill="#1E1E1E"/>
<path d="M287.751 78.8666C286.354 78.8666 285.009 78.6874 283.716 78.3291C282.444 77.9497 281.432 77.4966 280.682 76.9697L282.183 73.9662C282.934 74.451 283.831 74.8514 284.873 75.1676C285.916 75.4837 286.958 75.6418 288.001 75.6418C289.231 75.6418 290.118 75.4732 290.66 75.136C291.223 74.7987 291.504 74.3456 291.504 73.7765C291.504 73.3128 291.317 72.965 290.941 72.7332C290.566 72.4803 290.076 72.2906 289.471 72.1641C288.866 72.0377 288.189 71.9217 287.438 71.8163C286.708 71.711 285.968 71.574 285.217 71.4053C284.487 71.2156 283.82 70.9522 283.215 70.615C282.611 70.2566 282.121 69.7824 281.745 69.1923C281.37 68.6021 281.182 67.8223 281.182 66.8527C281.182 65.7778 281.485 64.8504 282.089 64.0705C282.694 63.2696 283.539 62.6584 284.623 62.2368C285.728 61.7942 287.031 61.5729 288.533 61.5729C289.659 61.5729 290.795 61.6994 291.942 61.9523C293.089 62.2052 294.038 62.5635 294.789 63.0272L293.287 66.0307C292.495 65.5459 291.692 65.2192 290.879 65.0506C290.086 64.8609 289.294 64.7661 288.502 64.7661C287.313 64.7661 286.427 64.9452 285.843 65.3036C285.28 65.6619 284.998 66.115 284.998 66.663C284.998 67.1689 285.186 67.5482 285.561 67.8012C285.937 68.0541 286.427 68.2543 287.031 68.4019C287.636 68.5494 288.303 68.6759 289.033 68.7812C289.784 68.8656 290.524 69.0026 291.254 69.1923C291.984 69.382 292.651 69.6454 293.256 69.9826C293.882 70.2988 294.382 70.752 294.757 71.3421C295.133 71.9323 295.32 72.7016 295.32 73.65C295.32 74.7039 295.008 75.6207 294.382 76.4006C293.777 77.1804 292.912 77.7917 291.786 78.2343C290.66 78.6558 289.315 78.8666 287.751 78.8666Z" fill="#1E1E1E"/>
<path d="M299 78.6453V61.7626H302.91V78.6453H299ZM300.971 58.9805C300.241 58.9805 299.636 58.7486 299.157 58.2849C298.698 57.8212 298.469 57.2627 298.469 56.6093C298.469 55.9348 298.698 55.3763 299.157 54.9337C299.636 54.47 300.241 54.2381 300.971 54.2381C301.701 54.2381 302.295 54.4594 302.754 54.9021C303.233 55.3236 303.473 55.8611 303.473 56.5144C303.473 57.21 303.244 57.8001 302.785 58.2849C302.326 58.7486 301.722 58.9805 300.971 58.9805Z" fill="#1E1E1E"/>
<path d="M315.924 85C314.381 85 312.869 84.7892 311.389 84.3677C309.929 83.9672 308.73 83.3771 307.792 82.5972L309.543 79.6254C310.273 80.2366 311.191 80.7214 312.296 81.0797C313.422 81.4591 314.558 81.6488 315.705 81.6488C317.54 81.6488 318.885 81.2167 319.74 80.3525C320.595 79.5094 321.023 78.2343 321.023 76.527V73.5236L321.335 69.6981L321.21 65.8726V61.7626H324.933V76.0844C324.933 79.1406 324.161 81.3853 322.618 82.8185C321.075 84.2728 318.844 85 315.924 85ZM315.424 77.8865C313.839 77.8865 312.4 77.5493 311.107 76.8748C309.835 76.1793 308.824 75.2203 308.073 73.9978C307.343 72.7753 306.978 71.3421 306.978 69.6981C306.978 68.0752 307.343 66.6525 308.073 65.43C308.824 64.2075 309.835 63.2591 311.107 62.5846C312.4 61.9102 313.839 61.5729 315.424 61.5729C316.842 61.5729 318.114 61.8575 319.24 62.4265C320.366 62.9956 321.263 63.8809 321.93 65.0822C322.618 66.2836 322.962 67.8223 322.962 69.6981C322.962 71.574 322.618 73.1231 321.93 74.3456C321.263 75.547 320.366 76.4427 319.24 77.0329C318.114 77.602 316.842 77.8865 315.424 77.8865ZM316.018 74.5353C316.998 74.5353 317.874 74.335 318.645 73.9346C319.417 73.513 320.011 72.944 320.428 72.2273C320.866 71.4896 321.085 70.6466 321.085 69.6981C321.085 68.7496 320.866 67.9171 320.428 67.2005C320.011 66.4628 319.417 65.9042 318.645 65.5249C317.874 65.1244 316.998 64.9242 316.018 64.9242C315.038 64.9242 314.152 65.1244 313.359 65.5249C312.588 65.9042 311.983 66.4628 311.545 67.2005C311.128 67.9171 310.92 68.7496 310.92 69.6981C310.92 70.6466 311.128 71.4896 311.545 72.2273C311.983 72.944 312.588 73.513 313.359 73.9346C314.152 74.335 315.038 74.5353 316.018 74.5353Z" fill="#1E1E1E"/>
<path d="M339.863 61.5729C341.198 61.5729 342.386 61.8364 343.429 62.3633C344.492 62.8902 345.327 63.7017 345.931 64.7977C346.536 65.8726 346.838 67.2637 346.838 68.9709V78.6453H342.929V69.4768C342.929 67.9803 342.574 66.8632 341.865 66.1255C341.177 65.3879 340.207 65.019 338.956 65.019C338.039 65.019 337.225 65.2087 336.516 65.5881C335.807 65.9675 335.255 66.5366 334.859 67.2953C334.483 68.033 334.296 68.9709 334.296 70.1091V78.6453H330.386V61.7626H334.108V66.3152L333.451 64.9242C334.035 63.8492 334.879 63.0272 335.985 62.4582C337.111 61.868 338.403 61.5729 339.863 61.5729Z" fill="#1E1E1E"/>
</svg>
