<svg width="247" height="400" viewBox="0 0 247 400" fill="none" xmlns="http://www.w3.org/2000/svg">
<g filter="url(#filter0_d_858_824)">
<rect x="9.59998" y="14.6001" width="230" height="276" rx="24" fill="#1E1E1E"/>
</g>
<g filter="url(#filter1_f_858_824)">
<path fill-rule="evenodd" clip-rule="evenodd" d="M53.8084 119.325C66.3669 107.383 85.8692 115.049 101.977 110.382C115.11 106.576 126.446 92.8242 139.507 94.494C152.571 96.164 160.032 109.215 168.567 118.894C175.96 127.279 182.177 136.4 185.975 147.191C189.764 157.958 189.503 169.547 190.488 181.188C191.82 196.918 205.158 216.933 192.8 227.84C179.045 239.981 159.341 218.652 142.291 223.727C128.914 227.71 124.405 249.711 110.821 252.244C97.7558 254.681 84.1799 246.548 77.2499 235.858C70.4292 225.337 80.8736 208.594 75.2086 197.311C68.3113 183.574 46.7325 181.906 42.5995 166.845C38.414 151.592 41.618 130.917 53.8084 119.325Z" fill="#E3AF64"/>
</g>
<g filter="url(#filter2_f_858_824)">
<path fill-rule="evenodd" clip-rule="evenodd" d="M75.7045 32.1C86.4899 33.2631 98.2739 26.9095 107.445 32.7181C116.727 38.5975 117.709 51.3064 122.016 61.4326C126.861 72.8254 139.895 84.5897 134.176 95.5678C128.168 107.1 109.314 100.887 98.0741 107.389C88.7991 112.755 86.2754 127.681 75.7045 129.395C65.0836 131.117 56.3097 121.624 47.3783 115.609C38.0577 109.333 24.7744 104.838 22.7861 93.7588C20.7788 82.5738 35.6141 75.3636 38.1687 64.2914C41.1644 51.3077 28.4824 33.9548 38.583 25.2923C48.3819 16.8886 62.8838 30.7175 75.7045 32.1Z" fill="#516AC8"/>
</g>
<path d="M106.146 372.685C103.025 372.927 100.151 373.252 97.5952 373.605M106.146 372.685L106.859 398.6M106.146 372.685C108.856 372.476 111.686 372.338 114.46 372.251M53.1772 398.6H35.6L36.5501 374.439C36.5501 374.439 42.1054 373.764 54.3648 373.67M53.1772 398.6L54.3648 373.67M53.1772 398.6H63.6285M54.3648 373.67C55.2776 373.663 56.2276 373.659 57.2152 373.659C59.5492 373.659 61.8641 373.722 64.1035 373.827M63.6285 398.6L64.1035 373.827M63.6285 398.6H74.5548M64.1035 373.827C67.8946 374.005 71.4695 374.303 74.5548 374.623M74.5548 374.623C80.7756 375.267 85.0062 375.998 85.0062 375.998C85.0062 375.998 85.9306 375.745 87.619 375.371M74.5548 374.623V398.6M74.5548 398.6H87.619M87.619 398.6V375.371M87.619 398.6H98.0703M87.619 375.371C89.7924 374.89 93.2319 374.207 97.5952 373.605M97.5952 373.605L98.0703 398.6M98.0703 398.6H106.859M106.859 398.6H115.172M114.46 372.251C124.575 371.935 133.937 372.296 133.937 372.296L135.6 398.6H115.172M114.46 372.251L115.172 398.6M64.1035 365.476C53.6522 365.281 37.2627 367.035 37.2627 367.035L38.9254 325.337C38.9254 325.337 41.0632 323.973 48.189 324.168M64.1035 365.476L65.0537 309.554M64.1035 365.476C68.0986 365.55 72.0937 365.796 75.505 366.07M105.671 363.722L103.771 309.164C103.771 309.164 100.033 309.356 96.4076 309.807M105.671 363.722C105.829 363.714 105.987 363.706 106.146 363.699M105.671 363.722L106.146 363.699M105.671 363.722C102.6 363.876 99.71 364.18 97.1202 364.543M133.225 363.138L133.462 367.229M133.225 363.138C133.225 363.138 117.738 363.138 106.146 363.699M133.225 363.138L132.512 343.263C132.512 343.263 130.612 342.776 127.999 342.484C125.386 342.191 123.486 342.289 123.486 342.289M48.189 324.168C55.3149 324.363 56.2651 326.116 56.2651 326.116L54.3648 365.476M48.189 324.168L48.6641 310.918C48.6641 310.918 61.0157 309.554 65.0537 309.554M65.0537 309.554C69.0917 309.554 71.942 309.554 75.505 309.944M75.505 309.944C79.0679 310.334 85.2437 312.477 85.2437 312.477C85.2437 312.477 86.1318 312.173 87.619 311.736M75.505 309.944V366.07M106.146 363.699L105.434 308.775C105.434 308.775 108.047 308.19 113.747 308.19C119.448 308.19 122.061 308.385 122.061 308.385M122.061 308.385L123.486 342.289M122.061 308.385L121.823 302.15M123.486 342.289C123.486 342.289 120.636 342.289 117.548 342.678C114.46 343.068 113.272 343.653 113.272 343.653L113.747 363.138M75.505 366.07C81.0178 366.514 85.0062 367.035 85.0062 367.035C85.0062 367.035 85.9493 366.75 87.619 366.344M87.619 311.736C88.7959 311.389 90.3481 310.959 92.132 310.528C93.3384 310.237 94.8628 309.998 96.4076 309.807M87.619 311.736V366.344M87.619 366.344C89.7514 365.826 93.0689 365.112 97.1202 364.543M96.4076 309.807L97.1202 364.543M121.823 302.15C121.823 302.15 117.073 301.565 113.747 301.565C111.108 301.565 108.021 301.657 105.434 301.915M121.823 302.15L120.873 279.158C120.873 279.158 120.398 278.184 117.785 277.014C115.172 275.845 113.51 276.04 113.51 276.04M113.51 276.04C113.51 276.04 110.659 276.138 108.047 277.209C105.434 278.281 104.721 279.158 104.721 279.158L105.434 301.915M113.51 276.04L112.322 240.773C112.322 240.773 105.434 239.993 101.396 239.993C98.5717 239.993 97.0256 240.088 95.4575 240.279M105.434 301.915C104.761 301.981 104.122 302.059 103.533 302.15C101.026 302.536 99.621 302.695 96.4076 303.259M58.8779 256.945C58.8779 256.945 56.7401 256.945 54.6024 257.53C52.4646 258.114 51.0394 259.088 51.0394 259.088L49.1392 304.878C49.1392 304.878 57.6902 303.709 64.1035 303.709C64.6145 303.709 65.0878 303.709 65.5287 303.709M58.8779 256.945C58.8779 256.945 60.7781 256.945 62.6784 257.14C64.5786 257.335 66.2413 258.114 66.2413 258.114L65.5287 303.709M58.8779 256.945L59.3529 242.721C59.3529 242.721 62.6784 241.357 65.7662 240.967C68.8541 240.578 73.3672 240.383 75.7425 240.578M65.5287 303.709C70.4403 303.716 71.3293 303.775 75.505 304.24M75.7425 240.578C78.1178 240.773 85.0062 242.526 85.0062 242.526C85.0062 242.526 86.3917 242.147 88.1096 241.716M75.7425 240.578L75.505 304.24M75.505 304.24C75.6587 304.257 75.817 304.275 75.98 304.293C80.9681 304.851 85.2437 306.437 85.2437 306.437C85.2437 306.437 86.4207 305.975 88.1096 305.402M88.1096 305.402C90.0594 304.741 92.6914 303.931 94.9824 303.514C95.4961 303.42 95.9687 303.336 96.4076 303.259M88.1096 305.402V241.716M88.1096 241.716C89.8765 241.273 91.995 240.775 93.3197 240.578C94.1052 240.461 94.7834 240.361 95.4575 240.279M96.4076 303.259L95.4575 240.279M75.7425 235.512C70.0418 235.512 71.467 235.512 66.9539 235.901C62.4408 236.291 59.5905 237.265 59.5905 237.265L60.7781 195.957C60.7781 195.957 62.1637 194.788 64.3411 193.814C66.5184 192.84 68.6166 192.645 68.6166 192.645M75.7425 235.512C81.4432 235.512 85.0062 237.85 85.0062 237.85C85.0062 237.85 86.3118 237.198 87.9796 236.486M75.7425 235.512V192.45L68.6166 192.645M104.417 210.766C104.417 210.766 106.196 210.766 108.181 211.156C110.165 211.545 110.897 211.935 110.897 211.935L111.609 235.512C111.609 235.512 104.959 233.953 100.208 234.148C96.0745 234.317 96.0771 234.339 94.2698 234.599M104.417 210.766C104.417 210.766 102.267 210.766 99.3097 211.545C96.3527 212.325 94.0323 213.494 94.0323 213.494L94.2698 234.599M104.417 210.766L103.533 180.369M94.2698 234.599C94 234.638 93.6899 234.682 93.3197 234.732C91.8628 234.931 89.7233 235.741 87.9796 236.486M68.6166 192.645L69.0917 180.759C69.0917 180.759 71.2294 179.59 74.0798 179.005C76.9301 178.421 80.018 178.031 82.1558 178.616C84.2936 179.2 85.2437 179.785 85.2437 179.785C85.2437 179.785 86.327 179.39 87.9796 179.022M103.533 180.369C103.533 180.369 101.396 179.005 98.5453 178.616C95.695 178.226 93.0822 178.226 90.2318 178.616C89.4105 178.728 88.6484 178.873 87.9796 179.022M103.533 180.369L103.42 177.057M87.9796 236.486V179.022M87.9796 175.303V153.48C87.9796 153.48 90.9444 151.921 93.3197 151.727C94.4546 151.634 95.3183 151.585 96.17 151.581M87.9796 175.303C89.9943 174.914 89.9943 174.914 92.3696 174.914C94.7449 174.914 95.9325 174.914 98.7829 175.498C101.633 176.083 103.42 177.057 103.42 177.057M87.9796 175.303L85.2437 176.278C85.2437 176.278 83.3434 175.303 81.2057 174.914C79.0679 174.524 76.9301 174.524 74.7924 174.914C72.6546 175.303 69.0917 176.278 69.0917 176.278M103.42 177.057L102.583 152.701C102.583 152.701 101.633 151.921 99.2579 151.727C98.0175 151.625 97.101 151.576 96.17 151.581M69.0917 176.278V178.226M69.0917 176.278L70.0418 133.606C70.0418 133.606 71.942 132.047 73.8423 131.268C75.7425 130.488 77.1677 130.293 77.1677 130.293V103.209C77.1677 103.209 77.6427 102.82 79.0679 102.235C80.4931 101.65 81.2057 101.65 81.2057 101.65L81.4432 85.8677L82.1558 85.0883L82.8684 84.3089V71.8386L85.7187 70.085V50.6001H87.3814V80.2171H89.0442L89.2817 93.6617L91.4195 95.4153V108.86H93.3197V126.396C93.3197 126.396 94.2698 126.786 94.9824 127.371C95.695 127.955 96.17 128.54 96.17 128.54V151.581" stroke="url(#paint0_linear_858_824)" stroke-width="2"/>
<path d="M204.229 29.4452L204.229 36.7869C198.022 36.3358 196.162 30.8944 196.162 24.2772C196.176 17.3866 198.172 11.6991 205.131 11.7264L206.471 11.7264C213.416 11.6991 215.412 17.3866 215.44 24.2772C215.426 30.8944 213.567 36.3358 207.373 36.7869L207.373 29.4452C209.178 28.7752 209.602 26.7381 209.602 24.2772C209.561 21.3514 209.041 18.8631 206.02 18.9041L205.569 18.9041C202.575 18.8631 202.028 21.3514 201.987 24.2772C201.987 26.7381 202.424 28.7889 204.229 29.4452ZM209.643 49.8299L204.215 47.3006L204.215 52.3455L209.643 49.8299ZM196.586 35.7069L214.961 45.5643L214.961 54.0819L196.586 63.9393L196.586 55.8729L199.731 54.4237L199.731 45.2225L196.586 43.7733L196.586 35.7069ZM206.457 71.6639L206.457 80.4139C206.457 80.8377 206.608 81.2069 206.909 81.5077C207.223 81.8221 207.592 81.9725 208.016 81.9725C208.453 81.9725 208.823 81.8221 209.123 81.5077C209.438 81.2069 209.588 80.8377 209.588 80.4139L209.588 71.6639L206.457 71.6639ZM214.961 64.4998L214.961 82.2049C215.002 85.992 211.817 89.2049 208.016 89.1502C204.229 89.2049 201.016 85.992 201.071 82.2049L201.071 71.6639L196.586 71.6639L196.586 64.4998L214.961 64.4998ZM214.989 91.1053L214.989 98.2694L196.614 98.2694L196.614 91.1053L214.989 91.1053ZM196.586 116.193L196.586 109.029L209.137 109.029L209.137 100.512L214.961 100.512L214.961 124.711L209.137 124.711L209.137 116.193L196.586 116.193ZM209.643 134.076L204.215 131.547L204.215 136.592L209.643 134.076ZM196.586 119.953L214.961 129.81L214.961 138.328L196.586 148.185L196.586 140.119L199.731 138.67L199.731 129.469L196.586 128.019L196.586 119.953ZM214.989 148.746L214.989 155.91L202.438 155.91L202.438 170.252L196.614 170.252L196.614 148.746L214.989 148.746ZM215.44 197.035C215.44 203.953 213.416 209.572 206.471 209.572L205.131 209.572C198.186 209.599 196.176 203.939 196.162 197.035C196.176 190.117 198.186 184.457 205.131 184.484L206.471 184.484C213.43 184.457 215.426 190.117 215.44 197.035ZM205.582 202.408L206.034 202.408C209.028 202.449 209.575 199.961 209.616 197.035C209.575 194.096 209.028 191.607 206.034 191.648L205.582 191.648C202.575 191.607 202.028 194.096 201.987 197.035C202.028 199.961 202.575 202.449 205.582 202.408ZM196.586 211.719L214.961 211.719L214.961 234.127L209.137 234.127L209.137 218.883L206.895 218.883L206.895 232.336L201.522 232.336L201.522 218.883L196.586 218.883L196.586 211.719ZM168.586 22.3084L168.586 15.1444L181.137 15.1444L181.137 6.62679L186.961 6.62679L186.961 30.826L181.137 30.826L181.137 22.3084L168.586 22.3084ZM187.44 43.9237C187.44 50.8416 185.416 56.4608 178.471 56.4608L177.131 56.4608C170.186 56.4881 168.176 50.828 168.162 43.9237C168.176 37.0057 170.186 31.3455 177.131 31.3729L178.471 31.3729C185.43 31.3455 187.426 37.0057 187.44 43.9237ZM177.582 49.2967L178.034 49.2967C181.028 49.3377 181.575 46.8494 181.616 43.9237C181.575 40.9842 181.028 38.4959 178.034 38.5369L177.582 38.5369C174.575 38.4959 174.028 40.9842 173.987 43.9237C174.028 46.8494 174.575 49.3377 177.582 49.2967ZM168.614 58.6073L186.989 58.6073L186.989 67.576L177.801 74.7401L186.989 81.9178L186.989 90.8729L168.614 90.8729L168.614 83.7088L178.416 83.7088L168.614 76.5311L168.614 72.9491L178.416 65.7713L168.614 65.7713L168.614 58.6073ZM187.44 105.967C187.44 112.885 185.416 118.504 178.471 118.504L177.131 118.504C170.186 118.531 168.176 112.871 168.162 105.967C168.176 99.0487 170.186 93.3885 177.131 93.4159L178.471 93.4159C185.43 93.3885 187.426 99.0487 187.44 105.967ZM177.582 111.34L178.034 111.34C181.028 111.381 181.575 108.892 181.616 105.967C181.575 103.027 181.028 100.539 178.034 100.58L177.582 100.58C174.575 100.539 174.028 103.027 173.987 105.967C174.028 108.892 174.575 111.381 177.582 111.34ZM186.975 120.65L186.975 138.355C187.016 142.142 183.83 145.355 180.03 145.301C178.649 145.301 177.391 144.931 176.27 144.193C175.162 143.469 174.315 142.498 173.754 141.295L168.6 145.301L168.6 137.672L173.084 134.213L173.084 127.814L168.6 127.814L168.6 120.65L186.975 120.65ZM181.602 136.551L181.602 127.814L178.471 127.814L178.471 136.551C178.471 136.988 178.621 137.357 178.922 137.658C179.237 137.972 179.606 138.123 180.03 138.123C180.905 138.123 181.602 137.426 181.602 136.551ZM186.975 147.529L186.975 165.234C187.016 169.021 183.83 172.234 180.03 172.18C178.649 172.18 177.391 171.81 176.27 171.072C175.162 170.347 174.315 169.377 173.754 168.174L168.6 172.18L168.6 164.551L173.084 161.092L173.084 154.693L168.6 154.693L168.6 147.529L186.975 147.529ZM181.602 163.43L181.602 154.693L178.471 154.693L178.471 163.43C178.471 163.867 178.621 164.236 178.922 164.537C179.237 164.851 179.606 165.002 180.03 165.002C180.905 165.002 181.602 164.305 181.602 163.43ZM187.44 186.439C187.44 193.357 185.416 198.976 178.471 198.976L177.131 198.976C170.186 199.004 168.176 193.344 168.162 186.439C168.176 179.521 170.186 173.861 177.131 173.889L178.471 173.889C185.43 173.861 187.426 179.521 187.44 186.439ZM177.582 191.812L178.034 191.812C181.028 191.853 181.575 189.365 181.616 186.439C181.575 183.5 181.028 181.012 178.034 181.053L177.582 181.053C174.575 181.012 174.028 183.5 173.987 186.439C174.028 189.365 174.575 191.853 177.582 191.812ZM175.327 226.908L186.961 231.174L186.961 239.24L168.586 231.174L168.586 222.656L177.774 218.623L168.586 214.59L168.586 206.072L186.961 198.006L186.961 206.072L175.327 210.324L186.961 214.59L186.961 222.656L175.327 226.908Z" fill="#F8F7F5"/>
<defs>
<filter id="filter0_d_858_824" x="2.59998" y="10.6001" width="244" height="290" filterUnits="userSpaceOnUse" color-interpolation-filters="sRGB">
<feFlood flood-opacity="0" result="BackgroundImageFix"/>
<feColorMatrix in="SourceAlpha" type="matrix" values="0 0 0 0 0 0 0 0 0 0 0 0 0 0 0 0 0 0 127 0" result="hardAlpha"/>
<feMorphology radius="1" operator="dilate" in="SourceAlpha" result="effect1_dropShadow_858_824"/>
<feOffset dy="3"/>
<feGaussianBlur stdDeviation="3"/>
<feComposite in2="hardAlpha" operator="out"/>
<feColorMatrix type="matrix" values="0 0 0 0 0 0 0 0 0 0 0 0 0 0 0 0 0 0 0.62 0"/>
<feBlend mode="normal" in2="BackgroundImageFix" result="effect1_dropShadow_858_824"/>
<feBlend mode="normal" in="SourceGraphic" in2="effect1_dropShadow_858_824" result="shape"/>
</filter>
<filter id="filter1_f_858_824" x="1.2562" y="54.754" width="236.352" height="237.525" filterUnits="userSpaceOnUse" color-interpolation-filters="sRGB">
<feFlood flood-opacity="0" result="BackgroundImageFix"/>
<feBlend mode="normal" in="SourceGraphic" in2="BackgroundImageFix" result="shape"/>
<feGaussianBlur stdDeviation="19.8" result="effect1_foregroundBlur_858_824"/>
</filter>
<filter id="filter2_f_858_824" x="-2.47955e-05" y="9.72748e-05" width="158.2" height="152.2" filterUnits="userSpaceOnUse" color-interpolation-filters="sRGB">
<feFlood flood-opacity="0" result="BackgroundImageFix"/>
<feBlend mode="normal" in="SourceGraphic" in2="BackgroundImageFix" result="shape"/>
<feGaussianBlur stdDeviation="11.3" result="effect1_foregroundBlur_858_824"/>
</filter>
<linearGradient id="paint0_linear_858_824" x1="85.6" y1="50.6001" x2="85.6" y2="398.6" gradientUnits="userSpaceOnUse">
<stop offset="0.375" stop-color="white"/>
<stop offset="0.55" stop-color="#999999" stop-opacity="0"/>
</linearGradient>
</defs>
</svg>
