<svg width="152" height="117" viewBox="0 0 152 117" fill="none" xmlns="http://www.w3.org/2000/svg">
<path d="M73.3438 93.5322C74.5277 93.5322 75.6212 93.6436 76.623 93.8662C77.6348 94.0888 78.5606 94.3874 79.4004 94.7617L78.5957 96.9785C77.7963 96.6446 76.9464 96.3662 76.0459 96.1436C75.1554 95.9209 74.2344 95.8096 73.2832 95.8096C72.3321 95.8096 71.5278 95.9511 70.8701 96.2344C70.2225 96.5076 69.7259 96.8974 69.3818 97.4033C69.038 97.9091 68.8663 98.5111 68.8662 99.209C68.8662 99.9881 69.0278 100.636 69.3516 101.152C69.6855 101.668 70.2122 102.128 70.9307 102.533C71.6592 102.928 72.6204 103.343 73.8145 103.778C75.1198 104.254 76.228 104.76 77.1387 105.296C78.0494 105.822 78.7422 106.47 79.2178 107.239C79.6933 107.998 79.9316 108.964 79.9316 110.138C79.9316 111.453 79.603 112.577 78.9453 113.508C78.2977 114.429 77.3867 115.132 76.2129 115.618C75.0392 116.104 73.6579 116.347 72.0693 116.347C71.2294 116.347 70.4344 116.306 69.6855 116.225C68.9369 116.144 68.2484 116.028 67.6211 115.876C66.9939 115.724 66.4423 115.537 65.9668 115.314V112.84C66.7257 113.154 67.6522 113.447 68.7451 113.721C69.8378 113.984 70.981 114.115 72.1748 114.115C73.2878 114.115 74.229 113.968 74.998 113.675C75.7671 113.371 76.3495 112.941 76.7441 112.385C77.1489 111.818 77.3516 111.14 77.3516 110.351C77.3515 109.592 77.1845 108.959 76.8506 108.453C76.5167 107.937 75.9598 107.472 75.1807 107.057C74.4116 106.632 73.3591 106.182 72.0234 105.706C71.0824 105.372 70.2526 105.008 69.5342 104.613C68.8157 104.209 68.2133 103.753 67.7275 103.247C67.2419 102.741 66.8731 102.154 66.6201 101.486C66.3773 100.818 66.2559 100.054 66.2559 99.1943C66.2559 98.0104 66.5543 96.9981 67.1514 96.1582C67.7584 95.3084 68.593 94.661 69.6553 94.2158C70.7279 93.7605 71.9575 93.5322 73.3438 93.5322ZM97.6045 93.5322C98.839 93.5322 100.008 93.6491 101.111 93.8818C102.224 94.1044 103.256 94.4231 104.207 94.8379L103.221 97.084C102.401 96.7299 101.495 96.4268 100.504 96.1738C99.5224 95.9209 98.5054 95.794 97.4531 95.7939C95.6419 95.7939 94.0882 96.1683 92.793 96.917C91.5078 97.6658 90.5211 98.7237 89.833 100.09C89.155 101.456 88.8164 103.075 88.8164 104.947C88.8164 106.799 89.1149 108.413 89.7119 109.789C90.309 111.155 91.24 112.218 92.5049 112.977C93.7698 113.735 95.3992 114.115 97.3926 114.115C98.3942 114.115 99.2543 114.06 99.9727 113.948C100.691 113.827 101.344 113.685 101.931 113.523V106.723H96.7549V104.416H104.511V115.178C103.347 115.572 102.148 115.865 100.914 116.058C99.6896 116.25 98.3177 116.347 96.7998 116.347C94.4928 116.347 92.5447 115.886 90.9561 114.965C89.3776 114.044 88.178 112.734 87.3584 111.034C86.5388 109.324 86.1299 107.295 86.1299 104.947C86.1299 102.65 86.5799 100.647 87.4805 98.9365C88.3912 97.2264 89.702 95.9001 91.4121 94.959C93.1322 94.008 95.1964 93.5322 97.6045 93.5322ZM141.876 93.502C144.072 93.502 145.918 93.973 147.416 94.9141C148.924 95.8551 150.062 97.1806 150.831 98.8906C151.61 100.591 152 102.6 152 104.917C152 106.627 151.783 108.185 151.348 109.592C150.913 110.988 150.264 112.192 149.404 113.204C148.554 114.206 147.497 114.98 146.232 115.526C144.968 116.073 143.5 116.347 141.83 116.347C140.11 116.347 138.607 116.073 137.322 115.526C136.047 114.98 134.985 114.201 134.135 113.189C133.295 112.178 132.662 110.968 132.237 109.562C131.822 108.155 131.615 106.597 131.615 104.887C131.615 102.62 131.989 100.631 132.738 98.9209C133.487 97.2108 134.621 95.8799 136.139 94.9287C137.667 93.9777 139.579 93.502 141.876 93.502ZM5.79883 93.8516C8.66243 93.8516 10.7519 94.413 12.0674 95.5361C13.393 96.6492 14.0557 98.2484 14.0557 100.333C14.0556 101.274 13.8986 102.17 13.585 103.02C13.2814 103.859 12.7857 104.603 12.0977 105.251C11.4096 105.888 10.5039 106.394 9.38086 106.769C8.26775 107.133 6.90128 107.314 5.28223 107.314H2.58105V116.043H0V93.8516H5.79883ZM24.0791 103.308H35.7363V93.8516H38.3164V116.043H35.7363V105.585H24.0791V116.043H21.498V93.8516H24.0791V103.308ZM52.8779 104.978L58.7822 93.8516H61.5605L54.168 107.437V116.043H51.5879V107.558L44.1807 93.8516H47.0039L52.8779 104.978ZM125.038 96.1279H115.263V103.308H124.476V105.554H115.263V113.766H125.038V116.043H112.682V93.8516H125.038V96.1279ZM141.876 95.7793C140.156 95.7793 138.739 96.1481 137.626 96.8867C136.513 97.6254 135.683 98.678 135.137 100.044C134.6 101.4 134.332 103.025 134.332 104.917C134.332 106.799 134.6 108.429 135.137 109.805C135.673 111.181 136.493 112.243 137.596 112.992C138.709 113.741 140.12 114.115 141.83 114.115C143.55 114.115 144.957 113.741 146.05 112.992C147.153 112.243 147.968 111.181 148.494 109.805C149.02 108.429 149.283 106.799 149.283 104.917C149.283 102.053 148.681 99.817 147.477 98.208C146.283 96.589 144.416 95.7793 141.876 95.7793ZM2.58105 105.099H4.99414C6.41083 105.099 7.59016 104.947 8.53125 104.644C9.4823 104.34 10.1953 103.849 10.6709 103.171C11.1465 102.483 11.3848 101.572 11.3848 100.438C11.3847 98.9613 10.9136 97.8639 9.97266 97.1455C9.03157 96.4169 7.55927 96.0518 5.55566 96.0518H2.58105V105.099ZM85.0723 32.582L72.7451 71.708L72.666 71.959L72.4141 72.0361L56.6025 76.8594L55.6973 77.1357L55.9795 76.2314L68.3076 36.8379L68.3877 36.5811L68.6455 36.5068L84.457 31.9512L85.3525 31.6934L85.0723 32.582ZM72.21 0.958984L52.3789 63.667L52.2998 63.918L52.0479 63.9941L36.2363 68.8184L35.3232 69.0967L35.6143 68.1875L55.4453 6.28418L55.5215 6.04785L55.7539 5.96484L71.5654 0.337891L72.5127 0L72.21 0.958984ZM115.087 9.2666L102.76 48.3926L102.681 48.6436L102.429 48.7207L86.6172 53.5439L85.7119 53.8203L85.9941 52.916L98.3223 13.5225L98.4023 13.2656L98.6602 13.1914L114.472 8.63574L115.367 8.37793L115.087 9.2666Z" fill="#1E1E1E"/>
</svg>
