<svg width="67" height="257" viewBox="0 0 67 257" fill="none" xmlns="http://www.w3.org/2000/svg">
<path d="M46.8551 237.011C44.8261 237.188 42.9585 237.426 41.2969 237.685M46.8551 237.011L47.3183 256M46.8551 237.011C48.6162 236.857 50.4559 236.756 52.2589 236.693M12.4252 256H1L1.61758 238.296C1.61758 238.296 5.22849 237.801 13.1971 237.732M12.4252 256L13.1971 237.732M12.4252 256H19.2185M13.1971 237.732C13.7905 237.727 14.4079 237.725 15.0499 237.725C16.567 237.725 18.0717 237.77 19.5273 237.847M19.2185 256L19.5273 237.847M19.2185 256H26.3207M19.5273 237.847C21.9915 237.977 24.3152 238.196 26.3207 238.43M26.3207 238.43C30.3642 238.903 33.114 239.438 33.114 239.438C33.114 239.438 33.7149 239.253 34.8123 238.979M26.3207 238.43V256M26.3207 256H34.8123M34.8123 256V238.979M34.8123 256H41.6057M34.8123 238.979C36.2251 238.626 38.4608 238.126 41.2969 237.685M41.2969 237.685L41.6057 256M41.6057 256H47.3183M47.3183 256H52.7221M52.2589 236.693C58.8335 236.461 64.9192 236.725 64.9192 236.725L66 256H52.7221M52.2589 236.693L52.7221 256M19.5273 231.728C12.734 231.585 2.08076 232.87 2.08076 232.87L3.16152 202.316C3.16152 202.316 4.55107 201.316 9.1829 201.459M19.5273 231.728L20.1449 190.751M19.5273 231.728C22.1241 231.782 24.7209 231.962 26.9382 232.163M46.5463 230.443L45.3112 190.465C45.3112 190.465 42.8817 190.606 40.5249 190.936M46.5463 230.443C46.6487 230.437 46.7517 230.431 46.8551 230.426M46.5463 230.443L46.8551 230.426M46.5463 230.443C44.5498 230.556 42.6715 230.778 40.9881 231.045M64.4561 230.015L64.6104 233.013M64.4561 230.015C64.4561 230.015 54.3899 230.015 46.8551 230.426M64.4561 230.015L63.9929 215.451C63.9929 215.451 62.7577 215.094 61.0594 214.88C59.361 214.666 58.1259 214.737 58.1259 214.737M9.1829 201.459C13.8147 201.602 14.4323 202.887 14.4323 202.887L13.1971 231.728M9.1829 201.459L9.49169 191.75C9.49169 191.75 17.5202 190.751 20.1449 190.751M20.1449 190.751C22.7696 190.751 24.6223 190.751 26.9382 191.036M26.9382 191.036C29.2542 191.322 33.2684 192.893 33.2684 192.893C33.2684 192.893 33.8457 192.67 34.8123 192.349M26.9382 191.036V232.163M46.8551 230.426L46.3919 190.18C46.3919 190.18 48.0903 189.751 51.7957 189.751C55.5012 189.751 57.1995 189.894 57.1995 189.894M57.1995 189.894L58.1259 214.737M57.1995 189.894L57.0451 185.325M58.1259 214.737C58.1259 214.737 56.2732 214.737 54.266 215.023C52.2589 215.309 51.4869 215.737 51.4869 215.737L51.7957 230.015M26.9382 232.163C30.5216 232.489 33.114 232.87 33.114 232.87C33.114 232.87 33.7271 232.661 34.8123 232.364M34.8123 192.349C35.5774 192.096 36.5863 191.78 37.7458 191.465C38.53 191.251 39.5209 191.076 40.5249 190.936M34.8123 192.349V232.364M34.8123 232.364C36.1984 231.985 38.3548 231.461 40.9881 231.045M40.5249 190.936L40.9881 231.045M57.0451 185.325C57.0451 185.325 53.9572 184.897 51.7957 184.897C50.0804 184.897 48.0734 184.964 46.3919 185.153M57.0451 185.325L56.4276 168.478C56.4276 168.478 56.1188 167.764 54.4204 166.907C52.7221 166.05 51.6413 166.193 51.6413 166.193M51.6413 166.193C51.6413 166.193 49.7886 166.265 48.0903 167.05C46.3919 167.835 45.9287 168.478 45.9287 168.478L46.3919 185.153M51.6413 166.193L50.8694 140.351C50.8694 140.351 46.3919 139.779 43.7672 139.779C41.9316 139.779 40.9266 139.849 39.9074 139.989M46.3919 185.153C45.9546 185.202 45.5392 185.259 45.1568 185.325C43.5267 185.608 42.6137 185.725 40.5249 186.138M16.1306 152.201C16.1306 152.201 14.7411 152.201 13.3515 152.629C11.962 153.058 11.0356 153.772 11.0356 153.772L9.80047 187.324C9.80047 187.324 15.3587 186.467 19.5273 186.467C19.8595 186.467 20.1671 186.468 20.4537 186.468M16.1306 152.201C16.1306 152.201 17.3658 152.201 18.6009 152.344C19.8361 152.487 20.9169 153.058 20.9169 153.058L20.4537 186.468M16.1306 152.201L16.4394 141.778C16.4394 141.778 18.6009 140.779 20.6081 140.493C22.6152 140.208 25.5487 140.065 27.0926 140.208M20.4537 186.468C23.6462 186.473 24.2241 186.516 26.9382 186.857M27.0926 140.208C28.6366 140.351 33.114 141.635 33.114 141.635C33.114 141.635 34.0146 141.358 35.1313 141.042M27.0926 140.208L26.9382 186.857M26.9382 186.857C27.0382 186.87 27.141 186.882 27.247 186.896C30.4893 187.305 33.2684 188.466 33.2684 188.466C33.2684 188.466 34.0335 188.128 35.1313 187.708M35.1313 187.708C36.3986 187.224 38.1094 186.631 39.5986 186.325C39.9325 186.256 40.2397 186.194 40.5249 186.138M35.1313 187.708V141.042M35.1313 141.042C36.2797 140.717 37.6567 140.353 38.5178 140.208C39.0284 140.122 39.4692 140.049 39.9074 139.989M40.5249 186.138L39.9074 139.989M27.0926 136.496C23.3872 136.496 24.3135 136.496 21.38 136.781C18.4466 137.067 16.5938 137.781 16.5938 137.781L17.3658 107.512C17.3658 107.512 18.2664 106.655 19.6817 105.941C21.097 105.227 22.4608 105.085 22.4608 105.085M27.0926 136.496C30.7981 136.496 33.114 138.209 33.114 138.209C33.114 138.209 33.9627 137.731 35.0467 137.209M27.0926 136.496V104.942L22.4608 105.085M45.7312 118.363C45.7312 118.363 46.8875 118.363 48.1774 118.648C49.4674 118.934 49.943 119.219 49.943 119.219L50.4062 136.496C50.4062 136.496 46.0831 135.353 42.9952 135.496C40.3084 135.62 40.3101 135.636 39.1354 135.827M45.7312 118.363C45.7312 118.363 44.3333 118.363 42.4113 118.934C40.4892 119.505 38.981 120.362 38.981 120.362L39.1354 135.827M45.7312 118.363L45.1568 96.0896M39.1354 135.827C38.96 135.855 38.7585 135.887 38.5178 135.924C37.5708 136.07 36.1801 136.664 35.0467 137.209M22.4608 105.085L22.7696 96.3751C22.7696 96.3751 24.1591 95.5185 26.0119 95.0901C27.8646 94.6618 29.8717 94.3762 31.2613 94.8046C32.6508 95.2329 33.2684 95.6612 33.2684 95.6612C33.2684 95.6612 33.9726 95.3718 35.0467 95.1021M45.1568 96.0896C45.1568 96.0896 43.7672 95.0901 41.9145 94.8046C40.0618 94.519 38.3634 94.519 36.5107 94.8046C35.9769 94.8869 35.4815 94.9929 35.0467 95.1021M45.1568 96.0896L45.0828 93.6624M35.0467 137.209V95.1021M35.0467 92.3774V76.3863C35.0467 76.3863 36.9739 75.2441 38.5178 75.1013C39.2555 75.0331 39.8169 74.9975 40.3705 74.9945M35.0467 92.3774C36.3563 92.0918 36.3563 92.0918 37.9002 92.0918C39.4442 92.0918 40.2162 92.0918 42.0689 92.5202C43.9216 92.9485 45.0828 93.6624 45.0828 93.6624M35.0467 92.3774L33.2684 93.0913C33.2684 93.0913 32.0333 92.3774 30.6437 92.0918C29.2542 91.8063 27.8646 91.8063 26.4751 92.0918C25.0855 92.3774 22.7696 93.0913 22.7696 93.0913M45.0828 93.6624L44.5392 75.8152C44.5392 75.8152 43.9216 75.2441 42.3777 75.1013C41.5714 75.0268 40.9756 74.9912 40.3705 74.9945M22.7696 93.0913V94.519M22.7696 93.0913L23.3872 61.8231C23.3872 61.8231 24.6223 60.6809 25.8575 60.1097C27.0926 59.5386 28.019 59.3959 28.019 59.3959V39.5498C28.019 39.5498 28.3278 39.2643 29.2542 38.8359C30.1805 38.4076 30.6437 38.4076 30.6437 38.4076L30.7981 26.8427L31.2613 26.2716L31.7245 25.7004V16.5627L33.5772 15.2777V1H34.658V22.7021H35.7387L35.8931 32.5538L37.2827 33.8387V43.6904H38.5178V56.5403C38.5178 56.5403 39.1354 56.8259 39.5986 57.2542C40.0618 57.6825 40.3705 58.1109 40.3705 58.1109V74.9945" stroke="url(#paint0_linear_2211_2119)"/>
<defs>
<linearGradient id="paint0_linear_2211_2119" x1="33.5" y1="1" x2="33.5" y2="256" gradientUnits="userSpaceOnUse">
<stop offset="0.375" stop-color="white"/>
<stop offset="1" stop-color="#999999" stop-opacity="0"/>
</linearGradient>
</defs>
</svg>
