<svg width="274" height="537" viewBox="0 0 274 537" fill="none" xmlns="http://www.w3.org/2000/svg">
<g filter="url(#filter0_n_94_346)">
<mask id="path-1-inside-1_94_346" fill="white">
<path d="M249.5 0C262.755 0 273.5 10.7452 273.5 24V337.022C262.313 337.523 253.301 346.379 252.552 357.5H250.687C250.411 357.5 250.187 357.724 250.187 358C250.187 358.276 250.411 358.5 250.687 358.5H252.506C252.502 358.666 252.5 358.833 252.5 359C252.5 370.815 261.814 380.454 273.5 380.977V513C273.5 526.255 262.755 537 249.5 537H24.5C11.2452 537 0.5 526.255 0.5 513V380.977C0.831494 380.991 1.16485 381 1.5 381C13.6503 381 23.5 371.15 23.5 359C23.5 346.85 13.6503 337 1.5 337C1.16486 337 0.83148 337.008 0.5 337.022V24C0.500005 10.7452 11.2452 0 24.5 0H249.5ZM27.624 357.5C27.3481 357.5 27.124 357.724 27.124 358C27.124 358.276 27.3481 358.5 27.624 358.5H32.6934C32.9695 358.5 33.1934 358.276 33.1934 358C33.1934 357.724 32.9695 357.5 32.6934 357.5H27.624ZM37.7637 357.5C37.4877 357.5 37.2637 357.724 37.2637 358C37.2637 358.276 37.4877 358.5 37.7637 358.5H42.833C43.1091 358.5 43.333 358.276 43.333 358C43.333 357.724 43.1091 357.5 42.833 357.5H37.7637ZM47.9023 357.5C47.6264 357.5 47.4023 357.724 47.4023 358C47.4023 358.276 47.6264 358.5 47.9023 358.5H52.9717C53.2478 358.5 53.4717 358.276 53.4717 358C53.4717 357.724 53.2478 357.5 52.9717 357.5H47.9023ZM58.042 357.5C57.7661 357.5 57.542 357.724 57.542 358C57.542 358.276 57.7661 358.5 58.042 358.5H63.1113C63.3874 358.5 63.6113 358.276 63.6113 358C63.6113 357.724 63.3874 357.5 63.1113 357.5H58.042ZM68.1807 357.5C67.9048 357.5 67.6807 357.724 67.6807 358C67.6807 358.276 67.9048 358.5 68.1807 358.5H73.25L73.3516 358.49C73.5793 358.443 73.75 358.242 73.75 358C73.75 357.758 73.5793 357.557 73.3516 357.51L73.25 357.5H68.1807ZM78.3203 357.5C78.0444 357.5 77.8203 357.724 77.8203 358C77.8203 358.276 78.0444 358.5 78.3203 358.5H83.3896L83.4902 358.49C83.7182 358.444 83.8896 358.242 83.8896 358C83.8896 357.758 83.7182 357.556 83.4902 357.51L83.3896 357.5H78.3203ZM88.459 357.5C88.1831 357.5 87.959 357.724 87.959 358C87.959 358.276 88.1832 358.5 88.459 358.5H93.5283L93.6299 358.49C93.8576 358.444 94.0283 358.242 94.0283 358C94.0283 357.758 93.8576 357.556 93.6299 357.51L93.5283 357.5H88.459ZM98.5986 357.5C98.3227 357.5 98.0986 357.724 98.0986 358C98.0986 358.276 98.3227 358.5 98.5986 358.5H103.668C103.944 358.5 104.168 358.276 104.168 358C104.168 357.724 103.944 357.5 103.668 357.5H98.5986ZM108.737 357.5C108.461 357.5 108.237 357.724 108.237 358C108.237 358.276 108.461 358.5 108.737 358.5H113.808L113.908 358.49C114.136 358.444 114.308 358.242 114.308 358C114.308 357.758 114.136 357.556 113.908 357.51L113.808 357.5H108.737ZM118.877 357.5C118.601 357.5 118.377 357.724 118.377 358C118.377 358.276 118.601 358.5 118.877 358.5H123.946L124.047 358.49C124.275 358.444 124.446 358.242 124.446 358C124.446 357.758 124.275 357.556 124.047 357.51L123.946 357.5H118.877ZM129.016 357.5C128.74 357.5 128.516 357.724 128.516 358C128.516 358.276 128.74 358.5 129.016 358.5H134.086L134.187 358.49C134.414 358.444 134.586 358.242 134.586 358C134.586 357.758 134.414 357.556 134.187 357.51L134.086 357.5H129.016ZM139.155 357.5C138.879 357.5 138.655 357.724 138.655 358C138.655 358.276 138.879 358.5 139.155 358.5H144.225L144.325 358.49C144.553 358.444 144.725 358.242 144.725 358C144.725 357.758 144.553 357.556 144.325 357.51L144.225 357.5H139.155ZM149.294 357.5C149.018 357.5 148.794 357.724 148.794 358C148.794 358.276 149.018 358.5 149.294 358.5H154.364C154.64 358.5 154.864 358.276 154.864 358C154.864 357.724 154.64 357.5 154.364 357.5H149.294ZM159.434 357.5C159.158 357.5 158.934 357.724 158.934 358C158.934 358.276 159.158 358.5 159.434 358.5H164.503C164.779 358.5 165.003 358.276 165.003 358C165.003 357.724 164.779 357.5 164.503 357.5H159.434ZM169.572 357.5C169.297 357.5 169.072 357.724 169.072 358C169.072 358.276 169.297 358.5 169.572 358.5H174.643C174.919 358.5 175.143 358.276 175.143 358C175.143 357.724 174.919 357.5 174.643 357.5H169.572ZM179.712 357.5C179.436 357.5 179.212 357.724 179.212 358C179.212 358.276 179.436 358.5 179.712 358.5H184.781C185.057 358.5 185.281 358.276 185.281 358C185.281 357.724 185.057 357.5 184.781 357.5H179.712ZM189.852 357.5C189.576 357.5 189.352 357.724 189.352 358C189.352 358.276 189.576 358.5 189.852 358.5H194.921L195.021 358.49C195.249 358.444 195.421 358.242 195.421 358C195.421 357.758 195.249 357.556 195.021 357.51L194.921 357.5H189.852ZM199.99 357.5C199.714 357.5 199.49 357.724 199.49 358C199.49 358.276 199.714 358.5 199.99 358.5H205.06L205.16 358.49C205.388 358.444 205.56 358.242 205.56 358C205.56 357.758 205.388 357.556 205.16 357.51L205.06 357.5H199.99ZM210.13 357.5C209.854 357.5 209.63 357.724 209.63 358C209.63 358.276 209.854 358.5 210.13 358.5H215.199L215.3 358.49C215.528 358.444 215.699 358.242 215.699 358C215.699 357.758 215.528 357.556 215.3 357.51L215.199 357.5H210.13ZM220.269 357.5C219.993 357.5 219.769 357.724 219.769 358C219.769 358.276 219.993 358.5 220.269 358.5H225.338L225.439 358.49C225.667 358.443 225.838 358.241 225.838 358C225.838 357.758 225.667 357.557 225.439 357.51L225.338 357.5H220.269ZM230.408 357.5C230.132 357.5 229.908 357.724 229.908 358C229.908 358.276 230.132 358.5 230.408 358.5H235.478L235.578 358.49C235.806 358.444 235.978 358.242 235.978 358C235.978 357.758 235.806 357.556 235.578 357.51L235.478 357.5H230.408ZM240.547 357.5C240.271 357.5 240.047 357.724 240.047 358C240.047 358.276 240.271 358.5 240.547 358.5H245.616L245.718 358.49C245.945 358.444 246.116 358.242 246.116 358C246.116 357.758 245.945 357.556 245.718 357.51L245.616 357.5H240.547Z"/>
</mask>
<path d="M249.5 0C262.755 0 273.5 10.7452 273.5 24V337.022C262.313 337.523 253.301 346.379 252.552 357.5H250.687C250.411 357.5 250.187 357.724 250.187 358C250.187 358.276 250.411 358.5 250.687 358.5H252.506C252.502 358.666 252.5 358.833 252.5 359C252.5 370.815 261.814 380.454 273.5 380.977V513C273.5 526.255 262.755 537 249.5 537H24.5C11.2452 537 0.5 526.255 0.5 513V380.977C0.831494 380.991 1.16485 381 1.5 381C13.6503 381 23.5 371.15 23.5 359C23.5 346.85 13.6503 337 1.5 337C1.16486 337 0.83148 337.008 0.5 337.022V24C0.500005 10.7452 11.2452 0 24.5 0H249.5ZM27.624 357.5C27.3481 357.5 27.124 357.724 27.124 358C27.124 358.276 27.3481 358.5 27.624 358.5H32.6934C32.9695 358.5 33.1934 358.276 33.1934 358C33.1934 357.724 32.9695 357.5 32.6934 357.5H27.624ZM37.7637 357.5C37.4877 357.5 37.2637 357.724 37.2637 358C37.2637 358.276 37.4877 358.5 37.7637 358.5H42.833C43.1091 358.5 43.333 358.276 43.333 358C43.333 357.724 43.1091 357.5 42.833 357.5H37.7637ZM47.9023 357.5C47.6264 357.5 47.4023 357.724 47.4023 358C47.4023 358.276 47.6264 358.5 47.9023 358.5H52.9717C53.2478 358.5 53.4717 358.276 53.4717 358C53.4717 357.724 53.2478 357.5 52.9717 357.5H47.9023ZM58.042 357.5C57.7661 357.5 57.542 357.724 57.542 358C57.542 358.276 57.7661 358.5 58.042 358.5H63.1113C63.3874 358.5 63.6113 358.276 63.6113 358C63.6113 357.724 63.3874 357.5 63.1113 357.5H58.042ZM68.1807 357.5C67.9048 357.5 67.6807 357.724 67.6807 358C67.6807 358.276 67.9048 358.5 68.1807 358.5H73.25L73.3516 358.49C73.5793 358.443 73.75 358.242 73.75 358C73.75 357.758 73.5793 357.557 73.3516 357.51L73.25 357.5H68.1807ZM78.3203 357.5C78.0444 357.5 77.8203 357.724 77.8203 358C77.8203 358.276 78.0444 358.5 78.3203 358.5H83.3896L83.4902 358.49C83.7182 358.444 83.8896 358.242 83.8896 358C83.8896 357.758 83.7182 357.556 83.4902 357.51L83.3896 357.5H78.3203ZM88.459 357.5C88.1831 357.5 87.959 357.724 87.959 358C87.959 358.276 88.1832 358.5 88.459 358.5H93.5283L93.6299 358.49C93.8576 358.444 94.0283 358.242 94.0283 358C94.0283 357.758 93.8576 357.556 93.6299 357.51L93.5283 357.5H88.459ZM98.5986 357.5C98.3227 357.5 98.0986 357.724 98.0986 358C98.0986 358.276 98.3227 358.5 98.5986 358.5H103.668C103.944 358.5 104.168 358.276 104.168 358C104.168 357.724 103.944 357.5 103.668 357.5H98.5986ZM108.737 357.5C108.461 357.5 108.237 357.724 108.237 358C108.237 358.276 108.461 358.5 108.737 358.5H113.808L113.908 358.49C114.136 358.444 114.308 358.242 114.308 358C114.308 357.758 114.136 357.556 113.908 357.51L113.808 357.5H108.737ZM118.877 357.5C118.601 357.5 118.377 357.724 118.377 358C118.377 358.276 118.601 358.5 118.877 358.5H123.946L124.047 358.49C124.275 358.444 124.446 358.242 124.446 358C124.446 357.758 124.275 357.556 124.047 357.51L123.946 357.5H118.877ZM129.016 357.5C128.74 357.5 128.516 357.724 128.516 358C128.516 358.276 128.74 358.5 129.016 358.5H134.086L134.187 358.49C134.414 358.444 134.586 358.242 134.586 358C134.586 357.758 134.414 357.556 134.187 357.51L134.086 357.5H129.016ZM139.155 357.5C138.879 357.5 138.655 357.724 138.655 358C138.655 358.276 138.879 358.5 139.155 358.5H144.225L144.325 358.49C144.553 358.444 144.725 358.242 144.725 358C144.725 357.758 144.553 357.556 144.325 357.51L144.225 357.5H139.155ZM149.294 357.5C149.018 357.5 148.794 357.724 148.794 358C148.794 358.276 149.018 358.5 149.294 358.5H154.364C154.64 358.5 154.864 358.276 154.864 358C154.864 357.724 154.64 357.5 154.364 357.5H149.294ZM159.434 357.5C159.158 357.5 158.934 357.724 158.934 358C158.934 358.276 159.158 358.5 159.434 358.5H164.503C164.779 358.5 165.003 358.276 165.003 358C165.003 357.724 164.779 357.5 164.503 357.5H159.434ZM169.572 357.5C169.297 357.5 169.072 357.724 169.072 358C169.072 358.276 169.297 358.5 169.572 358.5H174.643C174.919 358.5 175.143 358.276 175.143 358C175.143 357.724 174.919 357.5 174.643 357.5H169.572ZM179.712 357.5C179.436 357.5 179.212 357.724 179.212 358C179.212 358.276 179.436 358.5 179.712 358.5H184.781C185.057 358.5 185.281 358.276 185.281 358C185.281 357.724 185.057 357.5 184.781 357.5H179.712ZM189.852 357.5C189.576 357.5 189.352 357.724 189.352 358C189.352 358.276 189.576 358.5 189.852 358.5H194.921L195.021 358.49C195.249 358.444 195.421 358.242 195.421 358C195.421 357.758 195.249 357.556 195.021 357.51L194.921 357.5H189.852ZM199.99 357.5C199.714 357.5 199.49 357.724 199.49 358C199.49 358.276 199.714 358.5 199.99 358.5H205.06L205.16 358.49C205.388 358.444 205.56 358.242 205.56 358C205.56 357.758 205.388 357.556 205.16 357.51L205.06 357.5H199.99ZM210.13 357.5C209.854 357.5 209.63 357.724 209.63 358C209.63 358.276 209.854 358.5 210.13 358.5H215.199L215.3 358.49C215.528 358.444 215.699 358.242 215.699 358C215.699 357.758 215.528 357.556 215.3 357.51L215.199 357.5H210.13ZM220.269 357.5C219.993 357.5 219.769 357.724 219.769 358C219.769 358.276 219.993 358.5 220.269 358.5H225.338L225.439 358.49C225.667 358.443 225.838 358.241 225.838 358C225.838 357.758 225.667 357.557 225.439 357.51L225.338 357.5H220.269ZM230.408 357.5C230.132 357.5 229.908 357.724 229.908 358C229.908 358.276 230.132 358.5 230.408 358.5H235.478L235.578 358.49C235.806 358.444 235.978 358.242 235.978 358C235.978 357.758 235.806 357.556 235.578 357.51L235.478 357.5H230.408ZM240.547 357.5C240.271 357.5 240.047 357.724 240.047 358C240.047 358.276 240.271 358.5 240.547 358.5H245.616L245.718 358.49C245.945 358.444 246.116 358.242 246.116 358C246.116 357.758 245.945 357.556 245.718 357.51L245.616 357.5H240.547Z" fill="url(#paint0_linear_94_346)" fill-opacity="0.06"/>
<path d="M273.5 337.022L273.545 338.021L274.5 337.979V337.022H273.5ZM252.552 357.5V358.5H253.487L253.549 357.567L252.552 357.5ZM250.687 357.5V356.5H250.686L250.687 357.5ZM250.187 358H249.187V358L250.187 358ZM250.687 358.5L250.686 359.5H250.687V358.5ZM252.506 358.5L253.506 358.522L253.528 357.5H252.506V358.5ZM273.5 380.977H274.5V380.02L273.545 379.978L273.5 380.977ZM0.5 380.977L0.544694 379.978L-0.5 379.931V380.977H0.5ZM0.5 337.022H-0.5V338.068L0.544692 338.021L0.5 337.022ZM0.5 24H-0.5H0.5ZM27.624 357.5V356.5H27.6231L27.624 357.5ZM27.124 358H26.124H27.124ZM27.624 358.5L27.6231 359.5H27.624V358.5ZM32.6934 358.5V359.5V358.5ZM33.1934 358H34.1934H33.1934ZM32.6934 357.5V358.5V357.5ZM37.7637 357.5V356.5H37.7628L37.7637 357.5ZM37.2637 358H36.2637H37.2637ZM37.7637 358.5L37.7628 359.5H37.7637V358.5ZM42.833 358.5V359.5H42.8334L42.833 358.5ZM43.333 358H44.333H43.333ZM42.833 357.5L42.8334 356.5H42.833V357.5ZM47.9023 357.5V356.5H47.9013L47.9023 357.5ZM47.4023 358H46.4023H47.4023ZM47.9023 358.5L47.9013 359.5H47.9023V358.5ZM52.9717 358.5V359.5V358.5ZM53.4717 358H54.4717H53.4717ZM52.9717 357.5V358.5V357.5ZM58.042 357.5V356.5H58.0411L58.042 357.5ZM57.542 358H56.542H57.542ZM58.042 358.5L58.0411 359.5H58.042V358.5ZM63.1113 358.5V359.5H63.1116L63.1113 358.5ZM63.6113 358H64.6113H63.6113ZM63.1113 357.5L63.1116 356.5H63.1113V357.5ZM68.1807 357.5V356.5H68.1795L68.1807 357.5ZM67.6807 358H66.6807V358L67.6807 358ZM68.1807 358.5L68.1795 359.5H68.1807V358.5ZM73.25 358.5V359.5H73.298L73.3457 359.495L73.25 358.5ZM73.3516 358.49L73.4473 359.486L73.5004 359.481L73.5527 359.47L73.3516 358.49ZM73.75 358L74.75 358V358H73.75ZM73.3516 357.51L73.5527 356.53L73.5004 356.519L73.4473 356.514L73.3516 357.51ZM73.25 357.5L73.3457 356.505L73.298 356.5H73.25V357.5ZM78.3203 357.5V356.5H78.3194L78.3203 357.5ZM77.8203 358H76.8203V358L77.8203 358ZM78.3203 358.5L78.3194 359.5H78.3203V358.5ZM83.3896 358.5V359.5H83.4381L83.4863 359.495L83.3896 358.5ZM83.4902 358.49L83.5869 359.486L83.639 359.48L83.6903 359.47L83.4902 358.49ZM83.8896 358L84.8896 358V358H83.8896ZM83.4902 357.51L83.6903 356.53L83.639 356.52L83.5869 356.514L83.4902 357.51ZM83.3896 357.5L83.4863 356.505L83.4381 356.5H83.3896V357.5ZM88.459 357.5V356.5H88.4577L88.459 357.5ZM87.959 358H86.959V358L87.959 358ZM88.459 358.5L88.4577 359.5H88.459V358.5ZM93.5283 358.5V359.5H93.5763L93.624 359.495L93.5283 358.5ZM93.6299 358.49L93.7256 359.486L93.7786 359.481L93.8309 359.47L93.6299 358.49ZM94.0283 358L95.0283 358V358H94.0283ZM93.6299 357.51L93.8309 356.53L93.7786 356.519L93.7256 356.514L93.6299 357.51ZM93.5283 357.5L93.624 356.505L93.5763 356.5H93.5283V357.5ZM98.5986 357.5V356.5H98.5977L98.5986 357.5ZM98.0986 358H97.0986V358L98.0986 358ZM98.5986 358.5L98.5977 359.5H98.5986V358.5ZM103.668 358.5V359.5V358.5ZM104.168 358L105.168 358V358H104.168ZM103.668 357.5V358.5V357.5ZM108.737 357.5V356.5H108.736L108.737 357.5ZM108.237 358H107.237V358L108.237 358ZM108.737 358.5L108.736 359.5H108.737V358.5ZM113.808 358.5V359.5H113.856L113.904 359.495L113.808 358.5ZM113.908 358.49L114.005 359.486L114.057 359.48L114.109 359.47L113.908 358.49ZM114.308 358L115.308 358V358H114.308ZM113.908 357.51L114.109 356.53L114.057 356.52L114.005 356.514L113.908 357.51ZM113.808 357.5L113.904 356.505L113.856 356.5H113.808V357.5ZM118.877 357.5V356.5H118.876L118.877 357.5ZM118.377 358H117.377V358L118.377 358ZM118.877 358.5L118.876 359.5H118.877V358.5ZM123.946 358.5V359.5H123.995L124.043 359.495L123.946 358.5ZM124.047 358.49L124.144 359.486L124.196 359.48L124.247 359.47L124.047 358.49ZM124.446 358L125.446 358V358H124.446ZM124.047 357.51L124.247 356.53L124.196 356.52L124.144 356.514L124.047 357.51ZM123.946 357.5L124.043 356.505L123.995 356.5H123.946V357.5ZM129.016 357.5V356.5H129.014L129.016 357.5ZM128.516 358H127.516V358L128.516 358ZM129.016 358.5L129.014 359.5H129.016V358.5ZM134.086 358.5V359.5H134.134L134.183 359.495L134.086 358.5ZM134.187 358.49L134.283 359.486L134.336 359.48L134.387 359.47L134.187 358.49ZM134.586 358L135.586 358V358H134.586ZM134.187 357.51L134.387 356.53L134.336 356.52L134.283 356.514L134.187 357.51ZM134.086 357.5L134.183 356.505L134.134 356.5H134.086V357.5ZM139.155 357.5V356.5H139.154L139.155 357.5ZM138.655 358H137.655V358L138.655 358ZM139.155 358.5L139.154 359.5H139.155V358.5ZM144.225 358.5V359.5H144.273L144.321 359.495L144.225 358.5ZM144.325 358.49L144.422 359.486L144.474 359.48L144.525 359.47L144.325 358.49ZM144.725 358L145.725 358V358H144.725ZM144.325 357.51L144.525 356.53L144.474 356.52L144.422 356.514L144.325 357.51ZM144.225 357.5L144.321 356.505L144.273 356.5H144.225V357.5ZM149.294 357.5V356.5H149.292L149.294 357.5ZM148.794 358H147.794V358L148.794 358ZM149.294 358.5L149.292 359.5H149.294V358.5ZM154.364 358.5V359.5H154.365L154.364 358.5ZM154.864 358L155.864 358V358H154.864ZM154.364 357.5L154.365 356.5H154.364V357.5ZM159.434 357.5V356.5H159.433L159.434 357.5ZM158.934 358H157.934V358L158.934 358ZM159.434 358.5L159.433 359.5H159.434V358.5ZM164.503 358.5V359.5V358.5ZM165.003 358L166.003 358V358H165.003ZM164.503 357.5V358.5V357.5ZM169.572 357.5V356.5H169.571L169.572 357.5ZM169.072 358H168.072V358L169.072 358ZM169.572 358.5L169.571 359.5H169.572V358.5ZM174.643 358.5V359.5H174.643L174.643 358.5ZM175.143 358L176.143 358V358H175.143ZM174.643 357.5L174.643 356.5H174.643V357.5ZM179.712 357.5V356.5H179.711L179.712 357.5ZM179.212 358H178.212V358L179.212 358ZM179.712 358.5L179.711 359.5H179.712V358.5ZM184.781 358.5V359.5V358.5ZM185.281 358L186.281 358V358H185.281ZM184.781 357.5V358.5V357.5ZM189.852 357.5V356.5H189.851L189.852 357.5ZM189.352 358H188.352V358L189.352 358ZM189.852 358.5L189.851 359.5H189.852V358.5ZM194.921 358.5V359.5H194.969L195.018 359.495L194.921 358.5ZM195.021 358.49L195.118 359.486L195.17 359.48L195.222 359.47L195.021 358.49ZM195.421 358L196.421 358V358H195.421ZM195.021 357.51L195.222 356.53L195.17 356.52L195.118 356.514L195.021 357.51ZM194.921 357.5L195.018 356.505L194.969 356.5H194.921V357.5ZM199.99 357.5V356.5H199.989L199.99 357.5ZM199.49 358H198.49V358L199.49 358ZM199.99 358.5L199.989 359.5H199.99V358.5ZM205.06 358.5V359.5H205.108L205.156 359.495L205.06 358.5ZM205.16 358.49L205.257 359.486L205.309 359.481L205.36 359.47L205.16 358.49ZM205.56 358L206.56 358V358H205.56ZM205.16 357.51L205.36 356.53L205.309 356.519L205.257 356.514L205.16 357.51ZM205.06 357.5L205.156 356.505L205.108 356.5H205.06V357.5ZM210.13 357.5V356.5H210.129L210.13 357.5ZM209.63 358H208.63V358L209.63 358ZM210.13 358.5L210.129 359.5H210.13V358.5ZM215.199 358.5V359.5H215.248L215.296 359.495L215.199 358.5ZM215.3 358.49L215.396 359.486L215.449 359.48L215.5 359.47L215.3 358.49ZM215.699 358L216.699 358V358H215.699ZM215.3 357.51L215.5 356.53L215.449 356.52L215.396 356.514L215.3 357.51ZM215.199 357.5L215.296 356.505L215.248 356.5H215.199V357.5ZM220.269 357.5V356.5H220.267L220.269 357.5ZM219.769 358H218.769V358L219.769 358ZM220.269 358.5L220.267 359.5H220.269V358.5ZM225.338 358.5V359.5H225.386L225.434 359.495L225.338 358.5ZM225.439 358.49L225.535 359.486L225.588 359.481L225.641 359.47L225.439 358.49ZM225.838 358L226.838 358V358H225.838ZM225.439 357.51L225.641 356.53L225.588 356.519L225.535 356.514L225.439 357.51ZM225.338 357.5L225.434 356.505L225.386 356.5H225.338V357.5ZM230.408 357.5V356.5H230.407L230.408 357.5ZM229.908 358H228.908V358L229.908 358ZM230.408 358.5L230.407 359.5H230.408V358.5ZM235.478 358.5V359.5H235.526L235.574 359.495L235.478 358.5ZM235.578 358.49L235.675 359.486L235.727 359.48L235.778 359.47L235.578 358.49ZM235.978 358L236.978 358V358H235.978ZM235.578 357.51L235.778 356.53L235.727 356.52L235.675 356.514L235.578 357.51ZM235.478 357.5L235.574 356.505L235.526 356.5H235.478V357.5ZM240.547 357.5V356.5H240.546L240.547 357.5ZM240.047 358H239.047V358L240.047 358ZM240.547 358.5L240.546 359.5H240.547V358.5ZM245.616 358.5V359.5H245.664L245.712 359.495L245.616 358.5ZM245.718 358.49L245.813 359.486L245.867 359.481L245.919 359.47L245.718 358.49ZM246.116 358L247.116 358V358H246.116ZM245.718 357.51L245.919 356.53L245.867 356.519L245.813 356.514L245.718 357.51ZM245.616 357.5L245.712 356.505L245.664 356.5H245.616V357.5ZM249.5 0V1C262.203 1 272.5 11.2975 272.5 24H273.5H274.5C274.5 10.1929 263.307 -1 249.5 -1V0ZM273.5 24H272.5V337.022H273.5H274.5V24H273.5ZM273.5 337.022L273.455 336.023C261.758 336.547 252.337 345.805 251.554 357.433L252.552 357.5L253.549 357.567C254.264 346.953 262.867 338.499 273.545 338.021L273.5 337.022ZM252.552 357.5V356.5H250.687V357.5V358.5H252.552V357.5ZM250.687 357.5L250.686 356.5C249.859 356.501 249.187 357.171 249.187 358H250.187H251.187C251.187 358.277 250.962 358.5 250.687 358.5L250.687 357.5ZM250.187 358L249.187 358C249.187 358.829 249.859 359.499 250.686 359.5L250.687 358.5L250.687 357.5C250.962 357.5 251.187 357.723 251.187 358L250.187 358ZM250.687 358.5V359.5H252.506V358.5V357.5H250.687V358.5ZM252.506 358.5L251.506 358.478C251.502 358.65 251.5 358.824 251.5 359H252.5H253.5C253.5 358.841 253.502 358.682 253.506 358.522L252.506 358.5ZM252.5 359H251.5C251.5 371.353 261.237 381.429 273.455 381.976L273.5 380.977L273.545 379.978C262.39 379.479 253.5 370.278 253.5 359H252.5ZM273.5 380.977H272.5V513H273.5H274.5V380.977H273.5ZM273.5 513H272.5C272.5 525.703 262.203 536 249.5 536V537V538C263.307 538 274.5 526.807 274.5 513H273.5ZM249.5 537V536H24.5V537V538H249.5V537ZM24.5 537V536C11.7975 536 1.5 525.703 1.5 513H0.5H-0.5C-0.5 526.807 10.6929 538 24.5 538V537ZM0.5 513H1.5V380.977H0.5H-0.5V513H0.5ZM0.5 380.977L0.455306 381.976C0.799375 381.991 1.14779 382 1.5 382V381V380C1.1819 380 0.863613 379.992 0.544694 379.978L0.5 380.977ZM1.5 381V382C14.2025 382 24.5 371.703 24.5 359H23.5H22.5C22.5 370.598 13.098 380 1.5 380V381ZM23.5 359H24.5C24.5 346.297 14.2025 336 1.5 336V337V338C13.098 338 22.5 347.402 22.5 359H23.5ZM1.5 337V336C1.14968 336 0.801392 336.008 0.455308 336.023L0.5 337.022L0.544692 338.021C0.861567 338.007 1.18005 338 1.5 338V337ZM0.5 337.022H1.5V24H0.5H-0.5V337.022H0.5ZM0.5 24H1.5C1.5 11.2975 11.7975 1 24.5 1V0V-1C10.6929 -1 -0.499995 10.1929 -0.5 24H0.5ZM24.5 0V1H249.5V0V-1H24.5V0ZM27.624 357.5L27.6231 356.5C26.7965 356.501 26.124 357.171 26.124 358H27.124H28.124C28.124 358.277 27.8997 358.5 27.6249 358.5L27.624 357.5ZM27.124 358H26.124C26.124 358.829 26.7965 359.499 27.6231 359.5L27.624 358.5L27.6249 357.5C27.8997 357.5 28.124 357.723 28.124 358H27.124ZM27.624 358.5V359.5H32.6934V358.5V357.5H27.624V358.5ZM32.6934 358.5V359.5C33.5218 359.5 34.1934 358.828 34.1934 358H33.1934H32.1934C32.1934 357.724 32.4172 357.5 32.6934 357.5V358.5ZM33.1934 358H34.1934C34.1934 357.172 33.5218 356.5 32.6934 356.5V357.5V358.5C32.4172 358.5 32.1934 358.276 32.1934 358H33.1934ZM32.6934 357.5V356.5H27.624V357.5V358.5H32.6934V357.5ZM37.7637 357.5L37.7628 356.5C36.9361 356.501 36.2637 357.171 36.2637 358H37.2637H38.2637C38.2637 358.277 38.0393 358.5 37.7646 358.5L37.7637 357.5ZM37.2637 358H36.2637C36.2637 358.829 36.9361 359.499 37.7628 359.5L37.7637 358.5L37.7646 357.5C38.0393 357.5 38.2637 357.723 38.2637 358H37.2637ZM37.7637 358.5V359.5H42.833V358.5V357.5H37.7637V358.5ZM42.833 358.5L42.8334 359.5C43.661 359.5 44.333 358.829 44.333 358H43.333H42.333C42.333 357.723 42.5571 357.5 42.8326 357.5L42.833 358.5ZM43.333 358H44.333C44.333 357.171 43.661 356.5 42.8334 356.5L42.833 357.5L42.8326 358.5C42.5571 358.5 42.333 358.277 42.333 358H43.333ZM42.833 357.5V356.5H37.7637V357.5V358.5H42.833V357.5ZM47.9023 357.5L47.9013 356.5C47.0749 356.501 46.4023 357.171 46.4023 358H47.4023H48.4023C48.4023 358.277 48.1779 358.5 47.9033 358.5L47.9023 357.5ZM47.4023 358H46.4023C46.4024 358.829 47.0749 359.499 47.9013 359.5L47.9023 358.5L47.9033 357.5C48.178 357.5 48.4023 357.723 48.4023 358H47.4023ZM47.9023 358.5V359.5H52.9717V358.5V357.5H47.9023V358.5ZM52.9717 358.5V359.5C53.8001 359.5 54.4717 358.828 54.4717 358H53.4717H52.4717C52.4717 357.724 52.6955 357.5 52.9717 357.5V358.5ZM53.4717 358H54.4717C54.4717 357.172 53.8001 356.5 52.9717 356.5V357.5V358.5C52.6955 358.5 52.4717 358.276 52.4717 358H53.4717ZM52.9717 357.5V356.5H47.9023V357.5V358.5H52.9717V357.5ZM58.042 357.5L58.0411 356.5C57.2145 356.501 56.542 357.171 56.542 358H57.542H58.542C58.542 358.277 58.3176 358.5 58.0429 358.5L58.042 357.5ZM57.542 358H56.542C56.542 358.829 57.2145 359.499 58.0411 359.5L58.042 358.5L58.0429 357.5C58.3177 357.5 58.542 357.723 58.542 358H57.542ZM58.042 358.5V359.5H63.1113V358.5V357.5H58.042V358.5ZM63.1113 358.5L63.1116 359.5C63.9395 359.5 64.6113 358.829 64.6113 358H63.6113H62.6113C62.6113 357.724 62.8353 357.5 63.1111 357.5L63.1113 358.5ZM63.6113 358H64.6113C64.6113 357.171 63.9395 356.5 63.1116 356.5L63.1113 357.5L63.1111 358.5C62.8353 358.5 62.6113 358.276 62.6113 358H63.6113ZM63.1113 357.5V356.5H58.042V357.5V358.5H63.1113V357.5ZM68.1807 357.5L68.1795 356.5C67.3534 356.501 66.6807 357.171 66.6807 358H67.6807H68.6807C68.6807 358.277 68.4562 358.5 68.1818 358.5L68.1807 357.5ZM67.6807 358L66.6807 358C66.6807 358.829 67.3534 359.499 68.1795 359.5L68.1807 358.5L68.1818 357.5C68.4562 357.5 68.6807 357.723 68.6807 358L67.6807 358ZM68.1807 358.5V359.5H73.25V358.5V357.5H68.1807V358.5ZM73.25 358.5L73.3457 359.495L73.4473 359.486L73.3516 358.49L73.2559 357.495L73.1543 357.505L73.25 358.5ZM73.3516 358.49L73.5527 359.47C74.2387 359.329 74.75 358.723 74.75 358L73.75 358L72.75 358C72.75 357.76 72.9198 357.558 73.1505 357.511L73.3516 358.49ZM73.75 358H74.75C74.75 357.277 74.2386 356.671 73.5527 356.53L73.3516 357.51L73.1505 358.489C72.9199 358.442 72.75 358.24 72.75 358H73.75ZM73.3516 357.51L73.4473 356.514L73.3457 356.505L73.25 357.5L73.1543 358.495L73.2559 358.505L73.3516 357.51ZM73.25 357.5V356.5H68.1807V357.5V358.5H73.25V357.5ZM78.3203 357.5L78.3194 356.5C77.4928 356.501 76.8203 357.171 76.8203 358H77.8203H78.8203C78.8203 358.277 78.596 358.5 78.3212 358.5L78.3203 357.5ZM77.8203 358L76.8203 358C76.8203 358.829 77.4928 359.499 78.3194 359.5L78.3203 358.5L78.3212 357.5C78.596 357.5 78.8203 357.723 78.8203 358L77.8203 358ZM78.3203 358.5V359.5H83.3896V358.5V357.5H78.3203V358.5ZM83.3896 358.5L83.4863 359.495L83.5869 359.486L83.4902 358.49L83.3936 357.495L83.293 357.505L83.3896 358.5ZM83.4902 358.49L83.6903 359.47C84.3754 359.33 84.8896 358.725 84.8896 358L83.8896 358L82.8896 358C82.8897 357.758 83.0609 357.557 83.2901 357.51L83.4902 358.49ZM83.8896 358H84.8896C84.8896 357.275 84.3754 356.67 83.6903 356.53L83.4902 357.51L83.2902 358.49C83.0609 358.443 82.8896 358.242 82.8896 358H83.8896ZM83.4902 357.51L83.5869 356.514L83.4863 356.505L83.3896 357.5L83.293 358.495L83.3936 358.505L83.4902 357.51ZM83.3896 357.5V356.5H78.3203V357.5V358.5H83.3896V357.5ZM88.459 357.5L88.4577 356.5C87.6319 356.501 86.959 357.171 86.959 358H87.959H88.959C88.959 358.278 88.7344 358.5 88.4603 358.5L88.459 357.5ZM87.959 358L86.959 358C86.959 358.829 87.6318 359.499 88.4577 359.5L88.459 358.5L88.4603 357.5C88.7345 357.5 88.959 357.722 88.959 358L87.959 358ZM88.459 358.5V359.5H93.5283V358.5V357.5H88.459V358.5ZM93.5283 358.5L93.624 359.495L93.7256 359.486L93.6299 358.49L93.5342 357.495L93.4326 357.505L93.5283 358.5ZM93.6299 358.49L93.8309 359.47C94.5171 359.329 95.0283 358.723 95.0283 358L94.0283 358L93.0283 358C93.0283 357.76 93.1981 357.558 93.4289 357.511L93.6299 358.49ZM94.0283 358H95.0283C95.0283 357.277 94.5171 356.671 93.8309 356.53L93.6299 357.51L93.4289 358.489C93.1981 358.442 93.0283 358.24 93.0283 358H94.0283ZM93.6299 357.51L93.7256 356.514L93.624 356.505L93.5283 357.5L93.4326 358.495L93.5342 358.505L93.6299 357.51ZM93.5283 357.5V356.5H88.459V357.5V358.5H93.5283V357.5ZM98.5986 357.5L98.5977 356.5C97.7711 356.501 97.0986 357.171 97.0986 358H98.0986H99.0986C99.0986 358.277 98.8743 358.5 98.5995 358.5L98.5986 357.5ZM98.0986 358L97.0986 358C97.0986 358.829 97.7711 359.499 98.5977 359.5L98.5986 358.5L98.5995 357.5C98.8743 357.5 99.0986 357.723 99.0986 358L98.0986 358ZM98.5986 358.5V359.5H103.668V358.5V357.5H98.5986V358.5ZM103.668 358.5V359.5C104.496 359.5 105.168 358.828 105.168 358L104.168 358L103.168 358C103.168 357.724 103.392 357.5 103.668 357.5V358.5ZM104.168 358H105.168C105.168 357.172 104.496 356.5 103.668 356.5V357.5V358.5C103.392 358.5 103.168 358.276 103.168 358H104.168ZM103.668 357.5V356.5H98.5986V357.5V358.5H103.668V357.5ZM108.737 357.5L108.736 356.5C107.91 356.501 107.237 357.17 107.237 358H108.237H109.237C109.237 358.278 109.013 358.5 108.739 358.5L108.737 357.5ZM108.237 358L107.237 358C107.237 358.83 107.91 359.499 108.736 359.5L108.737 358.5L108.739 357.5C109.013 357.5 109.237 357.722 109.237 358L108.237 358ZM108.737 358.5V359.5H113.808V358.5V357.5H108.737V358.5ZM113.808 358.5L113.904 359.495L114.005 359.486L113.908 358.49L113.812 357.495L113.711 357.505L113.808 358.5ZM113.908 358.49L114.109 359.47C114.793 359.33 115.308 358.726 115.308 358L114.308 358L113.308 358C113.308 357.757 113.479 357.557 113.707 357.511L113.908 358.49ZM114.308 358H115.308C115.308 357.274 114.793 356.67 114.109 356.53L113.908 357.51L113.707 358.489C113.479 358.443 113.308 358.243 113.308 358H114.308ZM113.908 357.51L114.005 356.514L113.904 356.505L113.808 357.5L113.711 358.495L113.812 358.505L113.908 357.51ZM113.808 357.5V356.5H108.737V357.5V358.5H113.808V357.5ZM118.877 357.5L118.876 356.5C118.049 356.501 117.377 357.171 117.377 358H118.377H119.377C119.377 358.277 119.153 358.5 118.878 358.5L118.877 357.5ZM118.377 358L117.377 358C117.377 358.829 118.049 359.499 118.876 359.5L118.877 358.5L118.878 357.5C119.153 357.5 119.377 357.723 119.377 358L118.377 358ZM118.877 358.5V359.5H123.946V358.5V357.5H118.877V358.5ZM123.946 358.5L124.043 359.495L124.144 359.486L124.047 358.49L123.95 357.495L123.85 357.505L123.946 358.5ZM124.047 358.49L124.247 359.47C124.932 359.33 125.446 358.725 125.446 358L124.446 358L123.446 358C123.446 357.758 123.617 357.557 123.847 357.51L124.047 358.49ZM124.446 358H125.446C125.446 357.275 124.932 356.67 124.247 356.53L124.047 357.51L123.847 358.49C123.617 358.443 123.446 358.242 123.446 358H124.446ZM124.047 357.51L124.144 356.514L124.043 356.505L123.946 357.5L123.85 358.495L123.95 358.505L124.047 357.51ZM123.946 357.5V356.5H118.877V357.5V358.5H123.946V357.5ZM129.016 357.5L129.014 356.5C128.189 356.501 127.516 357.17 127.516 358H128.516H129.516C129.516 358.278 129.291 358.5 129.017 358.5L129.016 357.5ZM128.516 358L127.516 358C127.516 358.83 128.189 359.499 129.014 359.5L129.016 358.5L129.017 357.5C129.291 357.5 129.516 357.722 129.516 358L128.516 358ZM129.016 358.5V359.5H134.086V358.5V357.5H129.016V358.5ZM134.086 358.5L134.183 359.495L134.283 359.486L134.187 358.49L134.09 357.495L133.989 357.505L134.086 358.5ZM134.187 358.49L134.387 359.47C135.071 359.33 135.586 358.726 135.586 358L134.586 358L133.586 358C133.586 357.757 133.757 357.557 133.986 357.511L134.187 358.49ZM134.586 358H135.586C135.586 357.274 135.071 356.67 134.387 356.53L134.187 357.51L133.986 358.489C133.758 358.443 133.586 358.243 133.586 358H134.586ZM134.187 357.51L134.283 356.514L134.183 356.505L134.086 357.5L133.989 358.495L134.09 358.505L134.187 357.51ZM134.086 357.5V356.5H129.016V357.5V358.5H134.086V357.5ZM139.155 357.5L139.154 356.5C138.328 356.501 137.655 357.171 137.655 358H138.655H139.655C139.655 358.277 139.431 358.5 139.156 358.5L139.155 357.5ZM138.655 358L137.655 358C137.655 358.829 138.328 359.499 139.154 359.5L139.155 358.5L139.156 357.5C139.431 357.5 139.655 357.723 139.655 358L138.655 358ZM139.155 358.5V359.5H144.225V358.5V357.5H139.155V358.5ZM144.225 358.5L144.321 359.495L144.422 359.486L144.325 358.49L144.229 357.495L144.128 357.505L144.225 358.5ZM144.325 358.49L144.525 359.47C145.211 359.33 145.725 358.725 145.725 358L144.725 358L143.725 358C143.725 357.758 143.896 357.557 144.125 357.51L144.325 358.49ZM144.725 358H145.725C145.725 357.275 145.211 356.67 144.525 356.53L144.325 357.51L144.125 358.49C143.896 358.443 143.725 358.242 143.725 358H144.725ZM144.325 357.51L144.422 356.514L144.321 356.505L144.225 357.5L144.128 358.495L144.229 358.505L144.325 357.51ZM144.225 357.5V356.5H139.155V357.5V358.5H144.225V357.5ZM149.294 357.5L149.292 356.5C148.467 356.501 147.794 357.17 147.794 358H148.794H149.794C149.794 358.278 149.569 358.5 149.296 358.5L149.294 357.5ZM148.794 358L147.794 358C147.794 358.83 148.467 359.499 149.292 359.5L149.294 358.5L149.296 357.5C149.569 357.5 149.794 357.722 149.794 358L148.794 358ZM149.294 358.5V359.5H154.364V358.5V357.5H149.294V358.5ZM154.364 358.5L154.365 359.5C155.192 359.499 155.864 358.829 155.864 358L154.864 358L153.864 358C153.864 357.723 154.088 357.5 154.364 357.5L154.364 358.5ZM154.864 358H155.864C155.864 357.171 155.192 356.501 154.365 356.5L154.364 357.5L154.364 358.5C154.088 358.5 153.864 358.277 153.864 358H154.864ZM154.364 357.5V356.5H149.294V357.5V358.5H154.364V357.5ZM159.434 357.5L159.433 356.5C158.606 356.501 157.934 357.171 157.934 358H158.934H159.934C159.934 358.277 159.709 358.5 159.434 358.5L159.434 357.5ZM158.934 358L157.934 358C157.934 358.829 158.606 359.499 159.433 359.5L159.434 358.5L159.434 357.5C159.709 357.5 159.934 357.723 159.934 358L158.934 358ZM159.434 358.5V359.5H164.503V358.5V357.5H159.434V358.5ZM164.503 358.5V359.5C165.331 359.5 166.003 358.828 166.003 358L165.003 358L164.003 358C164.003 357.724 164.227 357.5 164.503 357.5V358.5ZM165.003 358H166.003C166.003 357.172 165.331 356.5 164.503 356.5V357.5V358.5C164.227 358.5 164.003 358.276 164.003 358H165.003ZM164.503 357.5V356.5H159.434V357.5V358.5H164.503V357.5ZM169.572 357.5L169.571 356.5C168.746 356.501 168.072 357.17 168.072 358H169.072H170.072C170.072 358.278 169.847 358.5 169.574 358.5L169.572 357.5ZM169.072 358L168.072 358C168.072 358.83 168.746 359.499 169.571 359.5L169.572 358.5L169.574 357.5C169.848 357.5 170.072 357.722 170.072 358L169.072 358ZM169.572 358.5V359.5H174.643V358.5V357.5H169.572V358.5ZM174.643 358.5L174.643 359.5C175.47 359.5 176.143 358.829 176.143 358L175.143 358L174.143 358C174.143 357.723 174.367 357.5 174.642 357.5L174.643 358.5ZM175.143 358H176.143C176.143 357.171 175.47 356.5 174.643 356.5L174.643 357.5L174.642 358.5C174.367 358.5 174.143 358.277 174.143 358H175.143ZM174.643 357.5V356.5H169.572V357.5V358.5H174.643V357.5ZM179.712 357.5L179.711 356.5C178.884 356.501 178.212 357.171 178.212 358H179.212H180.212C180.212 358.277 179.988 358.5 179.713 358.5L179.712 357.5ZM179.212 358L178.212 358C178.212 358.829 178.884 359.499 179.711 359.5L179.712 358.5L179.713 357.5C179.988 357.5 180.212 357.723 180.212 358L179.212 358ZM179.712 358.5V359.5H184.781V358.5V357.5H179.712V358.5ZM184.781 358.5V359.5C185.61 359.5 186.281 358.828 186.281 358L185.281 358L184.281 358C184.281 357.724 184.505 357.5 184.781 357.5V358.5ZM185.281 358H186.281C186.281 357.172 185.61 356.5 184.781 356.5V357.5V358.5C184.505 358.5 184.281 358.276 184.281 358H185.281ZM184.781 357.5V356.5H179.712V357.5V358.5H184.781V357.5ZM189.852 357.5L189.851 356.5C189.024 356.501 188.352 357.171 188.352 358H189.352H190.352C190.352 358.277 190.127 358.5 189.852 358.5L189.852 357.5ZM189.352 358L188.352 358C188.352 358.829 189.024 359.499 189.851 359.5L189.852 358.5L189.852 357.5C190.127 357.5 190.352 357.723 190.352 358L189.352 358ZM189.852 358.5V359.5H194.921V358.5V357.5H189.852V358.5ZM194.921 358.5L195.018 359.495L195.118 359.486L195.021 358.49L194.925 357.495L194.824 357.505L194.921 358.5ZM195.021 358.49L195.222 359.47C195.906 359.33 196.421 358.725 196.421 358L195.421 358L194.421 358C194.421 357.758 194.592 357.557 194.821 357.511L195.021 358.49ZM195.421 358H196.421C196.421 357.274 195.906 356.67 195.222 356.53L195.021 357.51L194.821 358.489C194.592 358.443 194.421 358.242 194.421 358H195.421ZM195.021 357.51L195.118 356.514L195.018 356.505L194.921 357.5L194.824 358.495L194.925 358.505L195.021 357.51ZM194.921 357.5V356.5H189.852V357.5V358.5H194.921V357.5ZM199.99 357.5L199.989 356.5C199.163 356.501 198.49 357.171 198.49 358H199.49H200.49C200.49 358.277 200.266 358.5 199.991 358.5L199.99 357.5ZM199.49 358L198.49 358C198.49 358.829 199.163 359.499 199.989 359.5L199.99 358.5L199.991 357.5C200.266 357.5 200.49 357.723 200.49 358L199.49 358ZM199.99 358.5V359.5H205.06V358.5V357.5H199.99V358.5ZM205.06 358.5L205.156 359.495L205.257 359.486L205.16 358.49L205.064 357.495L204.963 357.505L205.06 358.5ZM205.16 358.49L205.36 359.47C206.046 359.33 206.56 358.725 206.56 358L205.56 358L204.56 358C204.56 357.759 204.73 357.557 204.961 357.51L205.16 358.49ZM205.56 358H206.56C206.56 357.275 206.046 356.67 205.36 356.53L205.16 357.51L204.961 358.49C204.731 358.443 204.56 358.241 204.56 358H205.56ZM205.16 357.51L205.257 356.514L205.156 356.505L205.06 357.5L204.963 358.495L205.064 358.505L205.16 357.51ZM205.06 357.5V356.5H199.99V357.5V358.5H205.06V357.5ZM210.13 357.5L210.129 356.5C209.302 356.501 208.63 357.171 208.63 358H209.63H210.63C210.63 358.277 210.406 358.5 210.131 358.5L210.13 357.5ZM209.63 358L208.63 358C208.63 358.829 209.302 359.499 210.129 359.5L210.13 358.5L210.131 357.5C210.406 357.5 210.63 357.723 210.63 358L209.63 358ZM210.13 358.5V359.5H215.199V358.5V357.5H210.13V358.5ZM215.199 358.5L215.296 359.495L215.396 359.486L215.3 358.49L215.203 357.495L215.103 357.505L215.199 358.5ZM215.3 358.49L215.5 359.47C216.185 359.33 216.699 358.725 216.699 358L215.699 358L214.699 358C214.699 357.758 214.871 357.557 215.1 357.51L215.3 358.49ZM215.699 358H216.699C216.699 357.275 216.185 356.67 215.5 356.53L215.3 357.51L215.1 358.49C214.871 358.443 214.699 358.242 214.699 358H215.699ZM215.3 357.51L215.396 356.514L215.296 356.505L215.199 357.5L215.103 358.495L215.203 358.505L215.3 357.51ZM215.199 357.5V356.5H210.13V357.5V358.5H215.199V357.5ZM220.269 357.5L220.267 356.5C219.441 356.501 218.769 357.171 218.769 358H219.769H220.769C220.769 358.277 220.544 358.5 220.27 358.5L220.269 357.5ZM219.769 358L218.769 358C218.769 358.829 219.441 359.499 220.267 359.5L220.269 358.5L220.27 357.5C220.544 357.5 220.769 357.723 220.769 358L219.769 358ZM220.269 358.5V359.5H225.338V358.5V357.5H220.269V358.5ZM225.338 358.5L225.434 359.495L225.535 359.486L225.439 358.49L225.344 357.495L225.242 357.505L225.338 358.5ZM225.439 358.49L225.641 359.47C226.327 359.329 226.838 358.723 226.838 358L225.838 358L224.838 358C224.838 357.76 225.008 357.558 225.238 357.511L225.439 358.49ZM225.838 358H226.838C226.838 357.277 226.326 356.671 225.641 356.53L225.439 357.51L225.238 358.489C225.008 358.442 224.838 358.24 224.838 358H225.838ZM225.439 357.51L225.535 356.514L225.434 356.505L225.338 357.5L225.242 358.495L225.344 358.505L225.439 357.51ZM225.338 357.5V356.5H220.269V357.5V358.5H225.338V357.5ZM230.408 357.5L230.407 356.5C229.581 356.501 228.908 357.171 228.908 358H229.908H230.908C230.908 358.277 230.684 358.5 230.409 358.5L230.408 357.5ZM229.908 358L228.908 358C228.908 358.829 229.581 359.499 230.407 359.5L230.408 358.5L230.409 357.5C230.684 357.5 230.908 357.723 230.908 358L229.908 358ZM230.408 358.5V359.5H235.478V358.5V357.5H230.408V358.5ZM235.478 358.5L235.574 359.495L235.675 359.486L235.578 358.49L235.481 357.495L235.381 357.505L235.478 358.5ZM235.578 358.49L235.778 359.47C236.463 359.33 236.977 358.725 236.978 358L235.978 358L234.978 358C234.978 357.758 235.149 357.557 235.378 357.51L235.578 358.49ZM235.978 358H236.978C236.978 357.275 236.463 356.67 235.778 356.53L235.578 357.51L235.378 358.49C235.149 358.443 234.978 358.242 234.978 358H235.978ZM235.578 357.51L235.675 356.514L235.574 356.505L235.478 357.5L235.381 358.495L235.481 358.505L235.578 357.51ZM235.478 357.5V356.5H230.408V357.5V358.5H235.478V357.5ZM240.547 357.5L240.546 356.5C239.72 356.501 239.047 357.171 239.047 358H240.047H241.047C241.047 358.278 240.822 358.5 240.548 358.5L240.547 357.5ZM240.047 358L239.047 358C239.047 358.829 239.72 359.499 240.546 359.5L240.547 358.5L240.548 357.5C240.822 357.5 241.047 357.722 241.047 358L240.047 358ZM240.547 358.5V359.5H245.616V358.5V357.5H240.547V358.5ZM245.616 358.5L245.712 359.495L245.813 359.486L245.718 358.49L245.622 357.495L245.52 357.505L245.616 358.5ZM245.718 358.49L245.919 359.47C246.605 359.329 247.116 358.723 247.116 358L246.116 358L245.116 358C245.116 357.76 245.286 357.558 245.517 357.511L245.718 358.49ZM246.116 358H247.116C247.116 357.277 246.605 356.671 245.919 356.53L245.718 357.51L245.517 358.489C245.286 358.442 245.116 358.24 245.116 358H246.116ZM245.718 357.51L245.813 356.514L245.712 356.505L245.616 357.5L245.52 358.495L245.622 358.505L245.718 357.51ZM245.616 357.5V356.5H240.547V357.5V358.5H245.616V357.5Z" fill="url(#paint1_linear_94_346)" fill-opacity="0.35" mask="url(#path-1-inside-1_94_346)"/>
</g>
<defs>
<filter id="filter0_n_94_346" x="0.5" y="0" width="273" height="537" filterUnits="userSpaceOnUse" color-interpolation-filters="sRGB">
<feFlood flood-opacity="0" result="BackgroundImageFix"/>
<feBlend mode="normal" in="SourceGraphic" in2="BackgroundImageFix" result="shape"/>
<feTurbulence type="fractalNoise" baseFrequency="0.19230769574642181 0.19230769574642181" stitchTiles="stitch" numOctaves="3" result="noise" seed="7519" />
<feComponentTransfer in="noise" result="coloredNoise1">
<feFuncR type="linear" slope="2" intercept="-0.5" />
<feFuncG type="linear" slope="2" intercept="-0.5" />
<feFuncB type="linear" slope="2" intercept="-0.5" />
<feFuncA type="discrete" tableValues="1 1 1 1 1 1 1 1 1 1 1 1 1 1 1 1 1 1 1 1 1 1 1 1 1 1 1 1 1 1 1 1 1 1 1 1 1 1 1 1 1 1 1 1 1 1 1 1 1 1 1 0 0 0 0 0 0 0 0 0 0 0 0 0 0 0 0 0 0 0 0 0 0 0 0 0 0 0 0 0 0 0 0 0 0 0 0 0 0 0 0 0 0 0 0 0 0 0 0 0 "/>
</feComponentTransfer>
<feComposite operator="in" in2="shape" in="coloredNoise1" result="noise1Clipped" />
<feComponentTransfer in="noise1Clipped" result="color1">
<feFuncA type="table" tableValues="0 0.29" />
</feComponentTransfer>
<feMerge result="effect1_noise_94_346">
<feMergeNode in="shape" />
<feMergeNode in="color1" />
</feMerge>
</filter>
<linearGradient id="paint0_linear_94_346" x1="137" y1="220.806" x2="137" y2="537" gradientUnits="userSpaceOnUse">
<stop stop-color="#F8F7F5" stop-opacity="0.75"/>
<stop offset="1" stop-color="#737373" stop-opacity="0"/>
</linearGradient>
<linearGradient id="paint1_linear_94_346" x1="6.18749" y1="10.0099" x2="281.234" y2="253.149" gradientUnits="userSpaceOnUse">
<stop stop-color="#F8F7F5"/>
<stop offset="1" stop-color="#F8F7F5" stop-opacity="0.25"/>
</linearGradient>
</defs>
</svg>
