<svg width="81" height="52" viewBox="0 0 81 52" fill="none" xmlns="http://www.w3.org/2000/svg">
<g clip-path="url(#clip0_198_177)">
<path d="M41.1266 13.2876H42.6952V20.2225H41.1266V17.4683H38.9704V20.2225H37.4018V13.2876H38.9704V15.9427H41.1266V13.2876Z" fill="#F8F7F5" fill-opacity="0.75"/>
<path d="M46.1785 20.3612C45.4795 20.3612 44.8944 20.2093 44.424 19.9055C43.96 19.595 43.6302 19.1756 43.4341 18.6473L44.7868 17.8547C45.0611 18.4954 45.5414 18.8157 46.2277 18.8157C46.8485 18.8157 47.1589 18.6275 47.1589 18.251C47.1589 18.0463 47.0576 17.8877 46.8549 17.7755C46.6588 17.6566 46.2864 17.5212 45.7375 17.3693C45.4501 17.29 45.1984 17.2009 44.9829 17.1018C44.767 17.0027 44.5547 16.8739 44.3455 16.7154C44.143 16.5503 43.9862 16.3456 43.8751 16.1012C43.7707 15.8568 43.7183 15.5761 43.7183 15.2591C43.7183 14.6185 43.9438 14.1066 44.3947 13.7235C44.852 13.3405 45.3945 13.1489 46.0217 13.1489C46.5838 13.1489 47.0803 13.2843 47.5118 13.5551C47.9429 13.8193 48.283 14.2057 48.5311 14.7142L47.2078 15.4969C47.0838 15.2327 46.9302 15.0346 46.7472 14.9025C46.5643 14.7638 46.3225 14.6944 46.0217 14.6944C45.7867 14.6944 45.6037 14.7473 45.4728 14.8529C45.3488 14.952 45.2866 15.0742 45.2866 15.2195C45.2866 15.3912 45.3651 15.5398 45.5219 15.6653C45.6851 15.7908 46.0185 15.9295 46.5218 16.0814C46.7961 16.1672 47.0085 16.2366 47.1589 16.2894C47.3093 16.3423 47.4987 16.4314 47.7273 16.5569C47.9627 16.6758 48.139 16.8046 48.2568 16.9433C48.3807 17.0754 48.4886 17.2537 48.5803 17.4783C48.6783 17.6962 48.7272 17.9472 48.7272 18.2312C48.7272 18.8917 48.4918 19.4134 48.0214 19.7965C47.551 20.173 46.9366 20.3612 46.1785 20.3612Z" fill="#F8F7F5" fill-opacity="0.75"/>
<path d="M51.0315 18.6968H53.7759V20.2225H49.4632V13.2876H53.727V14.8133H51.0315V15.9625H53.4821V17.4683H51.0315V18.6968Z" fill="#F8F7F5" fill-opacity="0.75"/>
<path d="M41.656 28.7346C42.2181 29.0979 42.4991 29.6197 42.4991 30.3001C42.4991 30.9009 42.2867 31.3897 41.862 31.7661C41.437 32.1427 40.911 32.3307 40.2838 32.3307H37.4018V25.396H40.0878C40.7019 25.396 41.215 25.5809 41.6267 25.9508C42.045 26.314 42.2539 26.7896 42.2539 27.3774C42.2539 27.9322 42.0546 28.3846 41.656 28.7346ZM40.0878 26.882H38.9704V28.1105H40.0878C40.264 28.1105 40.4078 28.0543 40.5189 27.9421C40.63 27.8232 40.6856 27.6746 40.6856 27.4963C40.6856 27.3179 40.63 27.1726 40.5189 27.0603C40.4078 26.9415 40.264 26.882 40.0878 26.882ZM40.2838 30.8447C40.4799 30.8447 40.6367 30.7854 40.7542 30.6664C40.8718 30.541 40.9308 30.3791 40.9308 30.1811C40.9308 29.9828 40.8718 29.8244 40.7542 29.7054C40.6367 29.58 40.4799 29.5174 40.2838 29.5174H38.9704V30.8447H40.2838Z" fill="#F8F7F5" fill-opacity="0.75"/>
<path d="M47.7306 31.8257C47.234 32.2549 46.6001 32.4697 45.8292 32.4697C45.058 32.4697 44.4241 32.2549 43.9275 31.8257C43.4309 31.3962 43.1825 30.8183 43.1825 30.0918V25.396H44.7508V29.9531C44.7508 30.6003 45.1104 30.9241 45.8292 30.9241C46.548 30.9241 46.9073 30.6003 46.9073 29.9531V25.396H48.4756V30.0918C48.4756 30.8183 48.2274 31.3962 47.7306 31.8257Z" fill="#F8F7F5" fill-opacity="0.75"/>
<path d="M52.0083 32.4697C51.309 32.4697 50.7243 32.3175 50.2536 32.0137C49.7896 31.7035 49.4597 31.284 49.2636 30.7558L50.6163 29.9631C50.8907 30.6039 51.371 30.9241 52.0572 30.9241C52.678 30.9241 52.9884 30.7358 52.9884 30.3594C52.9884 30.1547 52.8872 29.996 52.6844 29.8838C52.4886 29.7651 52.116 29.6297 51.567 29.4778C51.2796 29.3985 51.028 29.3092 50.8124 29.2102C50.5968 29.1111 50.3842 28.9823 50.1753 28.8238C49.9726 28.6587 49.8158 28.4539 49.7046 28.2096C49.6002 27.9652 49.5478 27.6845 49.5478 27.3675C49.5478 26.7268 49.7733 26.215 50.2242 25.8319C50.6818 25.4488 51.224 25.2573 51.8512 25.2573C52.4133 25.2573 52.9099 25.3927 53.3413 25.6635C53.7727 25.9277 54.1125 26.3141 54.3606 26.8226L53.0373 27.6053C52.9134 27.3411 52.7598 27.1429 52.5768 27.0108C52.3938 26.8721 52.152 26.8028 51.8512 26.8028C51.6162 26.8028 51.4332 26.8556 51.3026 26.9613C51.1784 27.0604 51.1161 27.1826 51.1161 27.3279C51.1161 27.4996 51.1947 27.6482 51.3515 27.7737C51.515 27.8992 51.848 28.0379 52.3513 28.1898C52.6256 28.2756 52.838 28.345 52.9884 28.3978C53.1388 28.4507 53.3282 28.5398 53.5568 28.6653C53.7922 28.7842 53.9685 28.913 54.0863 29.0517C54.2105 29.1838 54.3182 29.3621 54.4098 29.5868C54.5078 29.8045 54.5567 30.0557 54.5567 30.3395C54.5567 31.0002 54.3216 31.5219 53.851 31.9047C53.3806 32.2814 52.7662 32.4697 52.0083 32.4697Z" fill="#F8F7F5" fill-opacity="0.75"/>
<path d="M55.2927 25.396H56.861V32.3307H55.2927V25.396Z" fill="#F8F7F5" fill-opacity="0.75"/>
<path d="M61.8629 25.396H63.4312V32.3307H62.2547L59.6083 28.5662V32.3307H58.04V25.396H59.2162L61.8629 29.1606V25.396Z" fill="#F8F7F5" fill-opacity="0.75"/>
<path d="M66.175 30.8051H68.9195V32.3307H64.6068V25.396H68.8706V26.9217H66.175V28.0709H68.6254V29.5768H66.175V30.8051Z" fill="#F8F7F5" fill-opacity="0.75"/>
<path d="M72.2059 32.4697C71.5068 32.4697 70.9218 32.3175 70.4514 32.0137C69.9874 31.7035 69.6575 31.284 69.4614 30.7558L70.8139 29.9631C71.0885 30.6039 71.5688 30.9241 72.255 30.9241C72.8758 30.9241 73.1862 30.7358 73.1862 30.3594C73.1862 30.1547 73.0847 29.996 72.8822 29.8838C72.6862 29.7651 72.3138 29.6297 71.7648 29.4778C71.4771 29.3985 71.2258 29.3092 71.0099 29.2102C70.7944 29.1111 70.582 28.9823 70.3728 28.8238C70.1704 28.6587 70.0136 28.4539 69.9024 28.2096C69.7977 27.9652 69.7456 27.6845 69.7456 27.3675C69.7456 26.7268 69.9711 26.215 70.422 25.8319C70.8793 25.4488 71.4219 25.2573 72.0491 25.2573C72.6111 25.2573 73.1077 25.3927 73.5391 25.6635C73.9702 25.9277 74.31 26.3141 74.5584 26.8226L73.2351 27.6053C73.1109 27.3411 72.9573 27.1429 72.7743 27.0108C72.5913 26.8721 72.3496 26.8028 72.0491 26.8028C71.8137 26.8028 71.6307 26.8556 71.5001 26.9613C71.3759 27.0604 71.3139 27.1826 71.3139 27.3279C71.3139 27.4996 71.3922 27.6482 71.5493 27.7737C71.7125 27.8992 72.0459 28.0379 72.5488 28.1898C72.8235 28.2756 73.0358 28.345 73.1862 28.3978C73.3363 28.4507 73.526 28.5398 73.7547 28.6653C73.99 28.7842 74.1663 28.913 74.2838 29.0517C74.408 29.1838 74.516 29.3621 74.6073 29.5868C74.7054 29.8045 74.7545 30.0557 74.7545 30.3395C74.7545 31.0002 74.5192 31.5219 74.0488 31.9047C73.5781 32.2814 72.964 32.4697 72.2059 32.4697Z" fill="#F8F7F5" fill-opacity="0.75"/>
<path d="M77.7483 32.4697C77.0492 32.4697 76.4642 32.3175 75.9938 32.0137C75.5298 31.7035 75.1999 31.284 75.0038 30.7558L76.3563 29.9631C76.6309 30.6039 77.1112 30.9241 77.7974 30.9241C78.4182 30.9241 78.7286 30.7358 78.7286 30.3594C78.7286 30.1547 78.6271 29.996 78.4246 29.8838C78.2286 29.7651 77.8562 29.6297 77.3073 29.4778C77.0196 29.3985 76.7682 29.3092 76.5524 29.2102C76.3368 29.1111 76.1244 28.9823 75.9153 28.8238C75.7128 28.6587 75.556 28.4539 75.4449 28.2096C75.3401 27.9652 75.2881 27.6845 75.2881 27.3675C75.2881 26.7268 75.5135 26.215 75.9644 25.8319C76.4217 25.4488 76.9643 25.2573 77.5915 25.2573C78.1535 25.2573 78.6501 25.3927 79.0815 25.6635C79.5126 25.9277 79.8524 26.3141 80.1009 26.8226L78.7775 27.6053C78.6533 27.3411 78.4997 27.1429 78.3167 27.0108C78.1337 26.8721 77.892 26.8028 77.5915 26.8028C77.3561 26.8028 77.1732 26.8556 77.0425 26.9613C76.9183 27.0604 76.8564 27.1826 76.8564 27.3279C76.8564 27.4996 76.9346 27.6482 77.0917 27.7737C77.2549 27.8992 77.5883 28.0379 78.0913 28.1898C78.3659 28.2756 78.5782 28.345 78.7286 28.3978C78.8788 28.4507 79.0684 28.5398 79.2971 28.6653C79.5324 28.7842 79.7087 28.913 79.8262 29.0517C79.9505 29.1838 80.0584 29.3621 80.1497 29.5868C80.2478 29.8045 80.2969 30.0557 80.2969 30.3395C80.2969 31.0002 80.0616 31.5219 79.5912 31.9047C79.1205 32.2814 78.5064 32.4697 77.7483 32.4697Z" fill="#F8F7F5" fill-opacity="0.75"/>
<path d="M40.6757 44.5779C39.6499 44.5779 38.797 44.2344 38.1174 43.5476C37.4443 42.8539 37.108 41.9955 37.108 40.9716C37.108 39.9481 37.4443 39.0926 38.1174 38.4057C38.797 37.7124 39.6499 37.3657 40.6757 37.3657C41.2901 37.3657 41.8585 37.5109 42.3813 37.8014C42.904 38.0855 43.316 38.4751 43.6165 38.9704L42.2638 39.763C42.1134 39.4921 41.8978 39.2841 41.6168 39.139C41.3358 38.9871 41.0222 38.911 40.6757 38.911C40.068 38.911 39.5813 39.0993 39.2153 39.4757C38.8558 39.8523 38.6763 40.3509 38.6763 40.9716C38.6763 41.5924 38.8558 42.0913 39.2153 42.4676C39.5813 42.8442 40.068 43.0323 40.6757 43.0323C41.0222 43.0323 41.3358 42.9565 41.6168 42.8046C41.9045 42.6527 42.12 42.4447 42.2638 42.1803L43.6165 42.9729C43.3224 43.4682 42.9139 43.8613 42.3912 44.1519C41.8684 44.436 41.2965 44.5779 40.6757 44.5779Z" fill="#F8F7F5" fill-opacity="0.75"/>
<path d="M45.9199 42.9136H48.3702V44.4392H44.3513V37.5044H45.9199V42.9136Z" fill="#F8F7F5" fill-opacity="0.75"/>
<path d="M53.4646 43.9339C52.9677 44.3631 52.3339 44.5779 51.563 44.5779C50.7918 44.5779 50.1579 44.3631 49.6613 43.9339C49.1647 43.5047 48.9163 42.9268 48.9163 42.2003V37.5044H50.4846V42.0616C50.4846 42.7088 50.8441 43.0323 51.563 43.0323C52.2818 43.0323 52.6411 42.7088 52.6411 42.0616V37.5044H54.2094V42.2003C54.2094 42.9268 53.9612 43.5047 53.4646 43.9339Z" fill="#F8F7F5" fill-opacity="0.75"/>
<path d="M59.5947 40.843C60.1567 41.2061 60.4378 41.7279 60.4378 42.4083C60.4378 43.0093 60.2254 43.4979 59.8007 43.8745C59.3757 44.2509 58.8497 44.4392 58.2225 44.4392H55.3405V37.5044H58.0264C58.6405 37.5044 59.1537 37.6892 59.5653 38.0591C59.9837 38.4225 60.1925 38.8978 60.1925 39.4857C60.1925 40.0404 59.9933 40.4928 59.5947 40.843ZM58.0264 38.9904H56.909V40.2187H58.0264C58.2027 40.2187 58.3464 40.1626 58.4575 40.0503C58.5687 39.9314 58.6242 39.783 58.6242 39.6047C58.6242 39.4263 58.5687 39.2809 58.4575 39.1687C58.3464 39.0497 58.2027 38.9904 58.0264 38.9904ZM58.2225 42.9532C58.4186 42.9532 58.5754 42.8936 58.6929 42.7749C58.8104 42.6492 58.8695 42.4876 58.8695 42.2893C58.8695 42.0913 58.8104 41.9326 58.6929 41.8139C58.5754 41.6882 58.4186 41.6256 58.2225 41.6256H56.909V42.9532H58.2225Z" fill="#F8F7F5" fill-opacity="0.75"/>
<path fill-rule="evenodd" clip-rule="evenodd" d="M15.3109 51.9543L0.587769 36.892L2.89627 16.1491L15.3109 10.4683L27.6742 16.1491L30.3417 36.892L15.3109 51.9543ZM15.1897 41.3866L13.9744 43.0476L10.6323 38.3759L10.8855 36.144L13.5187 34.4829H16.9621L19.6459 36.144L19.8991 38.3759L16.5063 43.0476L15.1897 41.3866ZM8.79724 19.2224L6.87299 22.3887H11.481L13.304 23.5826L13.1521 25.1918L12.2406 24.2055L10.2657 24.3093L7.98702 23.0117L7.48064 25.7628L9.5568 27.7353L10.2657 29.604L9.40489 31.5245L10.6202 33.4453L12.5951 33.8604L15.2283 32.0436L14.7219 30.3826L12.8989 28.7734V27.7353H17.6589V28.7734L15.8359 30.3826L15.3802 32.0436L17.9627 33.8604L19.9882 33.4453L21.2036 31.5245L20.3427 29.604L21.001 27.7353L23.0772 25.7628L22.6214 23.0117L20.3427 24.3093L18.3678 24.2055L17.4563 25.1918L17.3044 23.5826L19.0261 22.3887H23.6848L21.8112 19.2224L17.7095 16.8346L15.3295 18.3399L12.8483 16.8346L8.79724 19.2224Z" fill="#F8F7F5" fill-opacity="0.75"/>
<path fill-rule="evenodd" clip-rule="evenodd" d="M4.78565 14.7333L4.47415 10.6059L4.9933 9.66548L4.26647 8.72504L3.85114 3.18698L5.25291 4.54539L4.78565 5.79929L7.32956 9.35201L8.93899 4.28415L8.26408 3.18698L9.1986 1.2539L10.4965 2.97801L9.97733 4.17965L12.2098 7.73237L14.7018 3.34375L13.923 2.14208L15.2729 0L16.5708 2.14208L15.844 3.34375L18.284 7.73237L20.5165 4.28415L19.9973 2.97801L21.2433 1.2539L22.2297 3.18698L21.6067 4.28415L23.1642 9.29977L25.7082 5.85153L25.2928 4.59762L26.6946 3.18698L26.2792 8.72504L25.5005 9.66548L26.0716 10.6059L25.7082 14.7333L15.2729 9.97895L4.78565 14.7333ZM9.64834 5.62193L9.03406 7.2263L9.95548 8.52982L10.5698 7.02576L9.64834 5.62193ZM20.1484 7.11524L21.13 5.73357L21.6268 7.31199L20.6709 8.5976L20.1484 7.11524ZM14.409 5.62193L14.5007 5.81557H15.3217C15.4591 5.82094 15.7501 5.92045 15.8142 6.2754H15.272V6.44483H15.8142C15.8117 6.65189 15.6722 7.05314 15.1345 7.00149V7.16284C15.4693 7.22471 16.1571 7.1572 16.2304 6.39239C16.2419 6.1692 16.1273 5.70422 15.5775 5.63001L15.0887 5.62193H14.409ZM14.5465 5.94868H14.9627V8.71585H15.272V7.6348H15.6577V8.71585H16.0013V7.9696C15.9848 7.7948 15.8967 7.41696 15.6768 7.30403L15.8562 7.23141C15.981 7.2758 16.2549 7.44763 16.3526 7.78002C16.4504 8.11241 16.4443 8.56123 16.429 8.74411L16.5206 8.91756H14.451L14.5389 8.74411L14.5465 5.94868Z" fill="#F8F7F5" fill-opacity="0.75"/>
</g>
<defs>
<clipPath id="clip0_198_177">
<rect width="80" height="52" fill="white" transform="translate(0.5)"/>
</clipPath>
</defs>
</svg>
