<svg width="241" height="933" viewBox="0 0 241 933" fill="none" xmlns="http://www.w3.org/2000/svg">
<path d="M169.195 861.819C161.797 862.464 154.987 863.333 148.929 864.275M169.195 861.819L170.884 931M169.195 861.819C175.616 861.259 182.324 860.892 188.898 860.661M43.658 931H2L4.25178 866.501C4.25178 866.501 17.4177 864.698 46.4727 864.449M43.658 931L46.4727 864.449M43.658 931H68.4275M46.4727 864.449C48.636 864.43 50.8874 864.42 53.228 864.42C58.7596 864.42 64.2459 864.587 69.5534 864.867M68.4275 931L69.5534 864.867M68.4275 931H94.323M69.5534 864.867C78.5384 865.341 87.0108 866.138 94.323 866.991M94.323 866.991C109.066 868.711 119.093 870.662 119.093 870.662C119.093 870.662 121.283 869.987 125.285 868.989M94.323 866.991V931M94.323 931H125.285M125.285 931V868.989M125.285 931H150.055M125.285 868.989C130.436 867.704 138.588 865.883 148.929 864.275M148.929 864.275L150.055 931M150.055 931H170.884M170.884 931H190.587M188.898 860.661C212.87 859.818 235.059 860.779 235.059 860.779L239 931H190.587M188.898 860.661L190.587 931M69.5534 842.573C44.7838 842.053 5.94062 846.735 5.94062 846.735L9.88124 735.421C9.88124 735.421 14.9477 731.78 31.8361 732.3M69.5534 842.573L71.8052 693.288M69.5534 842.573C79.0217 842.772 88.49 843.427 96.5748 844.16M168.069 837.892L163.565 692.248C163.565 692.248 154.707 692.76 146.114 693.962M168.069 837.892C168.442 837.871 168.818 837.85 169.195 837.83M168.069 837.892L169.195 837.83M168.069 837.892C160.789 838.304 153.941 839.114 147.803 840.084M233.371 836.332L233.933 847.255M233.371 836.332C233.371 836.332 196.668 836.332 169.195 837.83M233.371 836.332L231.682 783.275C231.682 783.275 227.178 781.975 220.986 781.195C214.793 780.415 210.29 780.675 210.29 780.675M31.8361 732.3C48.7245 732.82 50.9762 737.502 50.9762 737.502L46.4727 842.573M31.8361 732.3L32.962 696.929C32.962 696.929 62.2352 693.288 71.8052 693.288M71.8052 693.288C81.3753 693.288 88.1306 693.288 96.5748 694.329M96.5748 694.329C105.019 695.369 119.656 701.091 119.656 701.091C119.656 701.091 121.761 700.28 125.285 699.112M96.5748 694.329V844.16M169.195 837.83L167.506 691.208C167.506 691.208 173.698 689.647 187.209 689.647C200.72 689.647 206.912 690.167 206.912 690.167M206.912 690.167L210.29 780.675M206.912 690.167L206.349 673.522M210.29 780.675C210.29 780.675 203.534 780.675 196.216 781.715C188.898 782.755 186.083 784.316 186.083 784.316L187.209 836.332M96.5748 844.16C109.64 845.345 119.093 846.735 119.093 846.735C119.093 846.735 121.328 845.974 125.285 844.891M125.285 699.112C128.074 698.187 131.753 697.038 135.981 695.889C138.84 695.112 142.453 694.474 146.114 693.962M125.285 699.112V844.891M125.285 844.891C130.339 843.508 138.201 841.601 147.803 840.084M146.114 693.962L147.803 840.084M206.349 673.522C206.349 673.522 195.09 671.962 187.209 671.962C180.955 671.962 173.637 672.208 167.506 672.894M206.349 673.522L204.097 612.144C204.097 612.144 202.971 609.543 196.779 606.422C190.587 603.301 186.646 603.821 186.646 603.821M186.646 603.821C186.646 603.821 179.891 604.081 173.698 606.942C167.506 609.803 165.817 612.144 165.817 612.144L167.506 672.894M186.646 603.821L183.831 509.673C183.831 509.673 167.506 507.592 157.936 507.592C151.243 507.592 147.579 507.847 143.862 508.356M167.506 672.894C165.911 673.072 164.397 673.281 163.002 673.522C157.059 674.552 153.73 674.978 146.114 676.482M57.1686 552.846C57.1686 552.846 52.1021 552.846 47.0356 554.407C41.9691 555.967 38.5914 558.568 38.5914 558.568L34.0879 680.804C34.0879 680.804 54.3539 677.684 69.5534 677.684C70.7645 677.684 71.8862 677.684 72.9311 677.686M57.1686 552.846C57.1686 552.846 61.6722 552.846 66.1758 553.366C70.6793 553.886 74.62 555.967 74.62 555.967L72.9311 677.686M57.1686 552.846L58.2945 514.875C58.2945 514.875 66.1758 511.233 73.4941 510.193C80.8123 509.153 91.5083 508.633 97.1378 509.153M72.9311 677.686C84.5716 677.703 86.6785 677.861 96.5748 679.102M97.1378 509.153C102.767 509.673 119.093 514.354 119.093 514.354C119.093 514.354 122.376 513.343 126.448 512.193M97.1378 509.153L96.5748 679.102M96.5748 679.102C96.9393 679.148 97.3143 679.195 97.7007 679.244C109.523 680.734 119.656 684.966 119.656 684.966C119.656 684.966 122.445 683.733 126.448 682.204M126.448 682.204C131.069 680.439 137.307 678.278 142.736 677.163C143.954 676.913 145.074 676.688 146.114 676.482M126.448 682.204V512.193M126.448 512.193C130.635 511.01 135.656 509.68 138.796 509.153C140.657 508.84 142.265 508.574 143.862 508.356M146.114 676.482L143.862 508.356M97.1378 495.629C83.6271 495.629 87.0047 495.629 76.3088 496.669C65.6128 497.709 58.8575 500.31 58.8575 500.31L61.6722 390.037C61.6722 390.037 64.9561 386.916 70.1164 384.315C75.2767 381.714 80.2494 381.194 80.2494 381.194M97.1378 495.629C110.648 495.629 119.093 501.871 119.093 501.871C119.093 501.871 122.187 500.13 126.14 498.23M97.1378 495.629V380.674L80.2494 381.194M165.097 429.569C165.097 429.569 169.313 429.569 174.016 430.609C178.719 431.65 180.454 432.69 180.454 432.69L182.143 495.629C182.143 495.629 166.38 491.468 155.121 491.988C145.325 492.44 145.331 492.499 141.047 493.192M165.097 429.569C165.097 429.569 160 429.569 152.992 431.65C145.984 433.73 140.485 436.851 140.485 436.851L141.047 493.192M165.097 429.569L163.002 348.424M141.047 493.192C140.408 493.295 139.673 493.413 138.796 493.548C135.343 494.08 130.272 496.242 126.14 498.23M80.2494 381.194L81.3753 349.465C81.3753 349.465 86.4418 346.344 93.1971 344.783C99.9525 343.223 107.271 342.182 112.337 343.743C117.404 345.303 119.656 346.864 119.656 346.864C119.656 346.864 122.223 345.81 126.14 344.827M163.002 348.424C163.002 348.424 157.936 344.783 151.181 343.743C144.425 342.703 138.233 342.703 131.477 343.743C129.531 344.043 127.725 344.429 126.14 344.827M163.002 348.424L162.733 339.582M126.14 498.23V344.827M126.14 334.9V276.643C126.14 276.643 133.166 272.482 138.796 271.961C141.485 271.713 143.532 271.583 145.551 271.572M126.14 334.9C130.914 333.86 130.914 333.86 136.544 333.86C142.173 333.86 144.988 333.86 151.743 335.421C158.499 336.981 162.733 339.582 162.733 339.582M126.14 334.9L119.656 337.501C119.656 337.501 115.152 334.9 110.086 333.86C105.019 332.82 99.9525 332.82 94.886 333.86C89.8195 334.9 81.3753 337.501 81.3753 337.501M162.733 339.582L160.751 274.562C160.751 274.562 158.499 272.482 152.869 271.961C149.93 271.69 147.757 271.56 145.551 271.572M81.3753 337.501V342.703M81.3753 337.501L83.6271 223.587C83.6271 223.587 88.1306 219.426 92.6342 217.345C97.1378 215.264 100.515 214.744 100.515 214.744V142.442C100.515 142.442 101.641 141.402 105.019 139.842C108.397 138.281 110.086 138.281 110.086 138.281L110.648 96.1484L112.337 94.0678L114.026 91.9871V58.6971L120.781 54.0157V2H124.722V81.0638H128.663L129.226 116.955L134.292 121.636V157.527H138.796V204.341C138.796 204.341 141.047 205.381 142.736 206.942C144.425 208.502 145.551 210.063 145.551 210.063V271.572" stroke="url(#paint0_linear_2_18)" stroke-width="3"/>
<defs>
<linearGradient id="paint0_linear_2_18" x1="120.5" y1="2" x2="120.5" y2="931" gradientUnits="userSpaceOnUse">
<stop offset="0.259615" stop-color="white"/>
<stop offset="0.572115" stop-color="#999999" stop-opacity="0"/>
</linearGradient>
</defs>
</svg>
