<svg width="478" height="350" viewBox="0 0 478 350" fill="none" xmlns="http://www.w3.org/2000/svg">
<path fill-rule="evenodd" clip-rule="evenodd" d="M95.95 169.049C110.815 164.387 130.376 164.873 139.101 151.319C167.537 107.147 156.664 41.6677 198.454 9.81496C226.425 -11.5055 277.081 8.76761 286.533 38.9434C299.571 80.5665 216.99 146.829 249.747 173.564C298.712 213.527 395.694 137.057 448.936 171.492C484.22 194.312 489.936 274.943 451.853 304.279C396.161 347.179 323.236 312.453 257.568 318.904C237.238 320.901 217.595 324.776 197.309 329.284C181.435 332.812 166.518 339.558 150.616 342.674C131.957 346.332 113.514 350.758 95.2798 349.283C72.2244 347.417 39.6019 353.247 30.1617 332.926C20.1663 311.41 58.1542 283.107 53.4323 259.202C47.8046 230.711 -10.7242 222.625 2.73672 194.083C17.0549 163.723 64.6888 178.852 95.95 169.049Z" fill="#516AC8"/>
</svg>
