<svg width="629" height="567" viewBox="0 0 629 567" fill="none" xmlns="http://www.w3.org/2000/svg">
<path fill-rule="evenodd" clip-rule="evenodd" d="M286.438 152.271C313.546 165.713 335.19 111.159 365.421 109.891C395.576 108.626 419.364 134.407 447.426 145.518C498.336 165.675 563.705 160.884 599.298 202.493C632.233 240.994 633.657 301.187 622.951 350.708C612.224 400.321 574.331 438.708 540.121 476.207C507.304 512.179 475.236 559.636 426.91 565.595C375.98 571.875 326.959 538.973 286.438 507.489C254.626 482.772 261.286 417.504 222.464 406.744C170.856 392.44 120.313 462.816 69.0732 447.244C27.7072 434.673 4.58498 382.236 0.271217 339.217C-4.06108 296.014 44.9236 262.468 46.1922 219.067C47.8774 161.414 -18.2255 103.408 8.6554 52.3776C33.197 5.78782 108.351 -10.8235 157.903 6.99586C219.519 29.1537 227.774 123.184 286.438 152.271Z" fill="#516AC8"/>
</svg>
