<svg width="550" height="544" viewBox="0 0 550 544" fill="none" xmlns="http://www.w3.org/2000/svg">
<path fill-rule="evenodd" clip-rule="evenodd" d="M299.212 109.034C332.371 118.594 357.396 71.0625 391.303 64.6488C440.826 55.2816 509.675 23.5804 540.604 63.3745C571.77 103.472 514.446 159.586 503.665 209.213C497.13 239.296 484.309 268.911 489.358 299.278C498.285 352.958 555.718 397.875 543.871 450.988C533.606 497.01 480.974 526.006 435.784 539.474C391.316 552.727 345.067 530.998 299.212 523.902C259.179 517.708 221.596 506.46 181.583 500.138C126.841 491.489 55.6032 520.927 18.6968 479.582C-17.2852 439.273 7.46048 371.996 20.3583 319.525C30.8322 276.915 54.1617 237.679 85.6663 207.138C111.443 182.15 167.521 195.34 182.239 162.595C204.337 113.43 128.416 25.427 177.425 2.98589C226.989 -19.709 246.833 93.9327 299.212 109.034Z" fill="#516AC8"/>
</svg>
