<svg width="836" height="630" viewBox="0 0 836 630" fill="none" xmlns="http://www.w3.org/2000/svg">
<path fill-rule="evenodd" clip-rule="evenodd" d="M519.535 1.01525C583.013 -3.06842 553.047 112.292 581.884 165.735C601.661 202.388 633.804 229.671 660.67 262.579C719.803 335.013 848.946 388.964 834.658 475.36C822.23 550.506 695.241 560.66 611.379 560.614C541.04 560.575 490.876 464.685 422.074 475.134C316.995 491.092 270.813 640.048 163.463 628.638C73.735 619.101 -9.22603 511.33 1.50772 430.432C13.9585 336.593 174.075 325.571 215.022 240.053C240.683 186.459 115.729 87.5692 175.674 66.6795C251.886 40.1211 313.125 193.204 393.512 177.853C471.46 162.968 439.561 6.16011 519.535 1.01525Z" fill="#0F1939"/>
</svg>
