<svg width="690" height="499" viewBox="0 0 690 499" fill="none" xmlns="http://www.w3.org/2000/svg">
<path fill-rule="evenodd" clip-rule="evenodd" d="M290.747 53.4845C348.711 24.2809 413.536 -5.75654 476.681 2.19256C544.103 10.68 595.655 51.0657 631.365 96.3636C668.06 142.91 709.312 202.782 677.932 257.475C645.739 313.586 552.172 320.832 485.245 351.044C447.523 368.072 408.53 376.71 371.992 395.579C310.433 427.368 269.137 496.125 199.505 498.602C129.721 501.083 75.1605 453.842 41.2529 407.342C7.22345 360.674 -15.4639 298.882 14.6555 245.101C43.8775 192.924 131.81 186.288 186.19 148.546C226.943 120.262 245.44 76.3107 290.747 53.4845Z" fill="#516AC8"/>
</svg>
