<svg width="630" height="433" viewBox="0 0 630 433" fill="none" xmlns="http://www.w3.org/2000/svg">
<path fill-rule="evenodd" clip-rule="evenodd" d="M308.307 31.3059C348.645 18.6674 396.244 -15.6669 430.705 8.86243C466.481 34.328 427.471 105.13 457.442 137.461C502.069 185.601 621.571 157.47 629.565 223.377C637.028 284.898 528.689 287.715 480.249 325.479C452.872 346.822 438.574 383.659 406.758 397.078C376.288 409.93 342.63 396.9 309.727 397.402C276.619 397.907 245.21 398.958 212.113 400.047C142.874 402.326 43.9363 467.515 7.95013 407.335C-27.6485 347.803 73.2826 288.056 109.544 228.52C127.538 198.977 147.456 172.827 167.79 144.901C185.548 120.516 198.507 93.1672 221.845 74.3008C247.424 53.6219 277.147 41.0685 308.307 31.3059Z" fill="#516AC8"/>
</svg>
